<svg xmlns="http://www.w3.org/2000/svg" viewBox="0 0 388 769" width="388" height="769">
	<defs>
		<linearGradient id="grd1" gradientUnits="userSpaceOnUse"  x1="16.371" y1="341.036" x2="375.189" y2="341.036">
			<stop offset="0" stop-color="#ec4c4c"  />
			<stop offset="1" stop-color="#ec4c4c"  />
		</linearGradient>
		<linearGradient id="grd2" gradientUnits="userSpaceOnUse"  x1="3.69" y1="589.395" x2="382.02" y2="589.395">
			<stop offset="0" stop-color="#ffffff"  />
			<stop offset="1" stop-color="#ffffff"  />
		</linearGradient>
		<linearGradient id="grd3" gradientUnits="userSpaceOnUse"  x1="18.991" y1="608.248" x2="366.711" y2="608.248">
			<stop offset="0" stop-color="#ec4c4c"  />
			<stop offset="1" stop-color="#ec4c4c"  />
		</linearGradient>
	</defs>
	<style>
		tspan { white-space:pre }
		.shp0 { fill: url(#grd1) } 
		.shp1 { fill: url(#grd2) } 
		.shp2 { fill: url(#grd3) } 
	</style>
	<path id="Layer" class="shp0" d="M113.07 222.95C113.07 222.95 129.19 247.03 127.88 275.64C126.62 303.09 127.46 327.21 86.03 358.1C43.66 390.93 16.37 442.25 16.37 499.98C16.37 599.08 96.68 679.39 195.78 679.39C294.86 679.39 375.19 599.08 375.19 499.98C375.19 411.99 301.04 301.82 280.05 268.5C254.7 228.24 232.62 177.43 240.42 108.04C248.21 38.69 267.69 2.68 267.69 2.68C267.69 2.68 207.93 63.57 187.14 131.36C166.36 199.12 170.98 249.39 186.49 289.67C164.66 236.35 113.07 222.95 113.07 222.95Z" />
	<path id="Layer" class="shp1" d="M107.52 426.83C44.61 426.83 3.91 489.38 3.69 540.75C3.28 635.26 192.84 751.96 192.84 751.96C192.84 751.96 382.43 635.27 382.02 540.75C381.79 489.37 341.07 426.83 278.16 426.83C249.31 426.83 212.91 445.64 192.84 463.33C172.77 445.64 136.37 426.83 107.52 426.83L107.52 426.83Z" />
	<path id="Layer" class="shp2" d="M114.42 458.84C56.6 458.84 19.2 516.32 18.99 563.54C18.62 650.4 192.84 757.66 192.84 757.66C192.84 757.66 367.09 650.41 366.71 563.54C366.5 516.32 329.07 458.84 271.26 458.84C244.74 458.84 211.28 476.12 192.84 492.38C174.39 476.12 140.94 458.84 114.42 458.84L114.42 458.84Z" />
</svg>