<?xml version="1.0" encoding="utf-8"?>
<!-- Generator: Adobe Illustrator 24.2.0, SVG Export Plug-In . SVG Version: 6.00 Build 0)  -->
<svg version="1.1" id="Camada_1" xmlns="http://www.w3.org/2000/svg" xmlns:xlink="http://www.w3.org/1999/xlink" x="0px" y="0px"
	 viewBox="0 0 388 769" style="enable-background:new 0 0 388 769;" xml:space="preserve">
<style type="text/css">
	.st0{fill:url(#Layer_3_);}
	.st1{fill:url(#Layer_4_);}
	.st2{fill:url(#Layer_5_);}
</style>
<linearGradient id="Layer_3_" gradientUnits="userSpaceOnUse" x1="16.37" y1="426.1618" x2="375.19" y2="426.1618" gradientTransform="matrix(1 0 0 -1 0 767.1968)">
	<stop  offset="0" style="stop-color:#EC4C4C"/>
	<stop  offset="1" style="stop-color:#EC4C4C"/>
</linearGradient>
<path id="Layer" class="st0" d="M113.1,223c0,0,16.1,24.1,14.8,52.7c-1.3,27.4-0.4,51.6-41.8,82.5C43.7,390.9,16.4,442.2,16.4,500
	c0,99.1,80.3,179.4,179.4,179.4c99.1,0,179.4-80.3,179.4-179.4c0-88-74.1-198.2-95.1-231.5c-25.3-40.3-47.4-91.1-39.6-160.5
	c7.8-69.4,27.3-105.4,27.3-105.4s-59.8,60.9-80.6,128.7c-20.8,67.8-16.2,118-0.6,158.3C164.7,236.4,113.1,223,113.1,223z"/>
<linearGradient id="Layer_4_" gradientUnits="userSpaceOnUse" x1="3.6893" y1="177.8018" x2="382.0207" y2="177.8018" gradientTransform="matrix(1 0 0 -1 0 767.1968)">
	<stop  offset="0" style="stop-color:#FFFFFF"/>
	<stop  offset="1" style="stop-color:#FFFFFF"/>
</linearGradient>
<path id="Layer_1_" class="st1" d="M107.5,426.8c-62.9,0-103.6,62.6-103.8,113.9C3.3,635.3,192.8,752,192.8,752
	S382.4,635.3,382,540.8c-0.2-51.4-40.9-113.9-103.9-113.9c-28.9,0-65.2,18.8-85.3,36.5C172.8,445.6,136.4,426.8,107.5,426.8
	L107.5,426.8z"/>
<linearGradient id="Layer_5_" gradientUnits="userSpaceOnUse" x1="18.9894" y1="158.9469" x2="366.7106" y2="158.9469" gradientTransform="matrix(1 0 0 -1 0 767.1968)">
	<stop  offset="0" style="stop-color:#EC4C4C"/>
	<stop  offset="1" style="stop-color:#EC4C4C"/>
</linearGradient>
<path id="Layer_2_" class="st2" d="M114.4,458.8c-57.8,0-95.2,57.5-95.4,104.7c-0.4,86.9,173.8,194.1,173.8,194.1
	s174.2-107.2,173.9-194.1c-0.2-47.2-37.6-104.7-95.4-104.7c-26.5,0-60,17.3-78.4,33.5C174.4,476.1,140.9,458.8,114.4,458.8
	L114.4,458.8z"/>
</svg>
