<svg xmlns="http://www.w3.org/2000/svg" viewBox="0 0 554 105" width="554" height="105">
	<defs>
		<linearGradient id="grd1" gradientUnits="userSpaceOnUse"  x1="0.096" y1="52.595" x2="707.491" y2="52.595">
			<stop offset="0" stop-color="#ec4c4c"  />
			<stop offset="1" stop-color="#ec4c4c"  />
		</linearGradient>
	</defs>
	<style>
		tspan { white-space:pre }
		.shp0 { fill: url(#grd1) } 
	</style>
	<path id="Layer" fill-rule="evenodd" class="shp0" d="M15.86 88.26L15.86 104.54L0.14 104.54L0.14 23.61L12.53 23.61L13.94 30.06C14.71 29.25 15.47 28.43 16.5 27.52C17.52 26.7 18.67 25.88 19.95 25.24C21.22 24.61 22.76 24.06 24.42 23.61C26.08 23.15 27.87 22.97 29.91 22.97C30.81 22.97 31.83 23.06 33.11 23.15C34.38 23.24 35.66 23.52 36.94 24.06C38.22 24.52 39.62 25.24 40.9 26.15C42.18 27.06 43.33 28.34 44.35 29.97C45.37 31.61 46.27 33.61 46.91 36.06C47.55 38.52 47.93 41.43 47.93 44.89L47.93 63.43C47.93 66.89 47.67 69.89 46.91 72.25C46.27 74.71 45.37 76.71 44.35 78.35C43.33 79.98 42.18 81.26 40.77 82.17C39.5 83.08 38.09 83.8 36.68 84.26C35.28 84.71 34 85.08 32.72 85.17C31.45 85.26 30.3 85.35 29.4 85.35C26.08 85.35 23.27 84.89 21.1 83.98C18.54 83.26 16.75 82.17 15.35 80.8L15.86 88.26ZM15.86 72.35C16.24 72.98 16.62 73.53 17.13 73.98C17.65 74.53 18.16 74.98 18.8 75.44C19.43 75.89 20.2 76.16 20.97 76.44C21.73 76.71 22.76 76.8 23.78 76.8C24.93 76.8 25.95 76.62 26.97 76.35C28 76.07 28.76 75.44 29.53 74.62C30.3 73.8 30.81 72.71 31.19 71.25C31.57 69.8 31.83 67.89 31.83 65.62L31.83 42.34C31.83 40.07 31.57 38.16 31.19 36.79C30.81 35.34 30.3 34.25 29.53 33.43C28.89 32.61 28 32.06 27.1 31.7C26.21 31.43 25.06 31.25 23.91 31.25C21.86 31.25 20.33 31.7 19.05 32.52C17.65 33.34 16.62 34.34 15.86 35.43L15.86 72.35ZM70.29 14.97C67.35 14.97 65.05 14.33 63.39 13.06C61.73 11.79 60.83 9.97 60.83 7.6C60.83 6.24 61.09 5.15 61.47 4.24C61.86 3.33 62.5 2.6 63.39 2.06C64.16 1.51 65.18 1.15 66.33 0.87C67.48 0.6 68.88 0.51 70.29 0.51C73.36 0.51 75.78 1.06 77.45 2.15C79.11 3.24 79.87 5.06 79.87 7.6C79.87 9.88 79.11 11.7 77.45 12.97C75.78 14.33 73.36 14.97 70.29 14.97ZM62.11 23.7L77.96 23.7L77.96 84.8L62.11 84.8L62.11 23.7ZM94.31 23.7L106.58 23.7L107.99 30.25L107.99 30.34C109.26 28.97 110.54 27.79 111.95 26.88C113.35 25.97 114.89 25.24 116.29 24.61C117.7 23.97 119.36 23.61 121.02 23.43C122.68 23.15 124.21 23.06 125.75 23.06C129.07 23.06 132.01 23.61 134.31 24.79C136.61 25.97 138.4 27.7 139.55 29.97C140.83 28.61 142.1 27.52 143.51 26.61C144.91 25.7 146.32 24.97 147.85 24.43C149.39 23.88 150.92 23.52 152.45 23.33C153.99 23.15 155.52 22.97 157.18 22.97C162.16 22.97 166 24.24 168.81 26.7C171.49 29.15 172.9 32.97 172.9 37.97L172.9 84.8L157.05 84.8L157.05 38.43C157.05 37.07 156.93 35.97 156.67 35.06C156.41 34.16 155.9 33.43 155.39 32.88C154.75 32.34 154.11 31.88 153.09 31.7C152.2 31.43 151.05 31.34 149.77 31.34C148.36 31.34 146.83 31.7 145.43 32.43C144.02 33.16 142.61 34.25 141.46 35.52C141.46 35.79 141.46 36.06 141.46 36.34C141.46 36.61 141.46 36.88 141.46 37.16L141.46 84.89L125.62 84.89L125.62 38.43C125.62 37.07 125.49 35.97 125.24 35.06C124.98 34.16 124.47 33.43 123.96 32.88C123.32 32.34 122.68 31.88 121.66 31.7C120.76 31.43 119.61 31.34 118.34 31.34C116.93 31.34 115.52 31.7 113.99 32.43C112.59 33.16 111.18 34.16 110.03 35.52L110.03 84.99L94.31 84.99L94.31 23.7ZM209.95 85.53C206.25 85.53 202.93 85.08 200.11 84.08C197.3 83.08 194.88 81.53 192.96 79.53C191.04 77.44 189.51 74.8 188.49 71.53C187.46 68.25 186.95 64.34 186.95 59.8L186.95 48.25C186.95 44.34 187.34 41.07 188.23 38.25C189 35.52 190.15 33.16 191.43 31.25C192.7 29.34 194.24 27.88 196.03 26.79C197.69 25.7 199.48 24.88 201.39 24.24C203.18 23.7 205.1 23.33 206.89 23.15C208.68 22.97 210.34 22.88 211.87 22.88C214.68 22.88 217.37 23.15 220.05 23.79C222.73 24.43 225.03 25.43 226.95 26.88C228.99 28.34 230.53 30.34 231.68 32.79C232.83 35.25 233.47 38.34 233.47 41.98C233.47 43.25 233.47 44.52 233.34 45.79C233.21 47.07 233.08 48.34 232.95 49.52C232.83 50.8 232.57 51.98 232.32 53.07C232.06 54.25 231.8 55.25 231.42 56.25L202.93 56.25L202.93 62.43C202.93 65.07 203.05 67.34 203.31 69.16C203.56 70.98 204.08 72.44 204.84 73.53C205.48 74.62 206.5 75.44 207.65 75.89C208.8 76.35 210.34 76.62 212.13 76.62C213.02 76.62 214.04 76.44 214.94 76.16C215.83 75.89 216.6 75.44 217.37 74.8C218 74.16 218.64 73.26 219.03 72.16C219.41 71.07 219.67 69.71 219.67 68.16L219.67 66.25L232.83 66.25L232.83 68.62C232.83 74.44 230.91 78.62 226.95 81.26C222.86 84.26 217.24 85.53 209.95 85.53ZM202.8 48.89L218.64 48.89C218.64 48.52 218.77 48.16 218.77 47.61C218.77 47.07 218.9 46.52 218.9 45.89C218.9 45.25 218.9 44.7 218.9 44.16C218.9 43.61 218.9 43.07 218.9 42.7C218.9 38.7 218.26 35.79 216.85 33.97C215.58 32.15 213.53 31.34 210.98 31.34C209.57 31.34 208.42 31.52 207.4 32.06C206.38 32.52 205.48 33.34 204.84 34.34C204.2 35.43 203.69 36.88 203.31 38.61C202.93 40.43 202.8 42.61 202.8 45.25L202.8 48.89ZM246.75 23.7L258.89 23.7L260.3 30.25L260.3 30.34C261.58 28.97 262.85 27.79 264.26 26.88C265.67 25.97 267.2 25.24 268.73 24.61C270.27 24.06 271.8 23.61 273.46 23.43C275.12 23.15 276.66 23.06 278.19 23.06C283.17 23.06 287.13 24.33 289.82 26.79C292.5 29.25 293.91 33.06 293.91 38.07L293.91 84.89L278.19 84.89L278.19 38.43C278.19 35.7 277.55 33.88 276.4 32.79C275.25 31.7 273.59 31.25 271.29 31.25C269.76 31.25 268.09 31.61 266.56 32.34C265.03 33.06 263.62 34.06 262.47 35.43L262.47 84.89L246.75 84.89L246.75 23.7ZM312.18 31.7L305.53 31.7L305.53 23.7L313.58 23.7L316.78 7.88L328.02 7.88L328.02 23.7L341.7 23.7L341.7 31.7L327.89 31.7L327.89 70.62C327.89 71.98 328.02 72.98 328.41 73.8C328.79 74.62 329.3 75.26 329.94 75.71C330.58 76.16 331.34 76.44 332.11 76.62C333.01 76.8 333.77 76.8 334.8 76.8C336.33 76.8 337.73 76.71 338.88 76.44C340.03 76.16 341.18 75.8 342.33 75.35L342.33 81.53C341.44 82.35 340.42 82.98 339.4 83.44C338.37 83.98 337.22 84.35 336.07 84.62C334.92 84.89 333.77 85.17 332.62 85.26C331.47 85.35 330.32 85.44 329.17 85.44C327 85.44 324.83 85.26 322.78 84.8C320.74 84.35 318.95 83.62 317.42 82.44C315.88 81.26 314.61 79.62 313.58 77.62C312.56 75.62 312.18 72.98 312.18 69.62L312.18 31.7ZM360.86 14.97C357.92 14.97 355.62 14.33 353.96 13.06C352.3 11.79 351.41 9.97 351.41 7.6C351.41 6.24 351.66 5.15 352.05 4.24C352.43 3.33 353.07 2.6 353.96 2.06C354.73 1.51 355.75 1.15 356.9 0.87C358.05 0.6 359.46 0.51 360.86 0.51C363.93 0.51 366.36 1.06 368.02 2.15C369.68 3.24 370.45 5.06 370.45 7.6C370.45 9.88 369.68 11.7 368.02 12.97C366.36 14.24 364.06 14.97 360.86 14.97ZM352.68 23.7L368.53 23.7L368.53 84.8L352.68 84.8L352.68 23.7ZM385.01 23.7L397.15 23.7L398.56 30.25L398.56 30.34C399.84 28.97 401.11 27.79 402.65 26.88C404.05 25.97 405.59 25.24 407.12 24.61C408.65 24.06 410.19 23.61 411.85 23.43C413.51 23.15 415.04 23.06 416.57 23.06C421.56 23.06 425.52 24.33 428.2 26.79C430.89 29.25 432.29 33.06 432.29 38.07L432.29 84.89L416.57 84.89L416.57 38.43C416.57 35.7 415.94 33.88 414.79 32.79C413.64 31.7 411.85 31.25 409.67 31.25C408.14 31.25 406.48 31.61 404.95 32.34C403.41 33.06 402.01 34.06 400.86 35.43L400.86 84.89L385.01 84.89L385.01 23.7ZM448.65 4.15L464.36 4.15L464.36 18.52L463.6 28.97C464.75 27.79 466.03 26.88 467.3 26.06C468.71 25.34 469.99 24.7 471.52 24.24C472.93 23.79 474.46 23.43 475.86 23.24C477.4 23.06 478.8 22.97 480.21 22.97C485.19 22.97 489.15 24.24 491.84 26.7C494.52 29.15 495.93 32.97 495.93 37.97L495.93 84.8L480.08 84.8L480.08 38.43C480.08 35.7 479.44 33.88 478.29 32.79C477.14 31.7 475.35 31.25 473.18 31.25C471.65 31.25 469.99 31.61 468.45 32.34C466.79 33.06 465.39 34.16 464.24 35.43L464.24 84.8L448.65 84.8L448.65 4.15ZM524.29 85.53C521.61 85.53 519.31 85.17 517.14 84.44C515.09 83.71 513.3 82.62 511.9 81.35C510.49 80.07 509.47 78.53 508.7 76.71C507.94 74.89 507.55 72.98 507.55 70.89C507.55 68.34 507.94 66.16 508.83 64.16C509.73 62.16 511 60.43 512.66 58.89C514.33 57.34 516.37 55.89 518.93 54.61C521.48 53.34 524.29 52.07 527.62 50.98C529.15 50.43 530.94 49.89 532.98 49.25C534.9 48.7 536.69 48.16 538.22 47.79L538.22 39.7C538.22 38.52 538.09 37.43 537.97 36.43C537.84 35.43 537.58 34.52 537.07 33.79C536.56 33.06 535.92 32.43 534.9 31.97C534 31.52 532.6 31.34 530.94 31.34C529.79 31.34 528.77 31.52 527.62 31.79C526.59 32.06 525.57 32.61 524.8 33.34C524.04 34.06 523.4 34.97 522.89 36.16C522.38 37.34 522.12 38.79 522.12 40.52L522.12 43.16L510.36 43.16C509.98 41.98 509.73 40.98 509.47 39.97C509.34 38.97 509.21 38.07 509.21 37.07C509.21 34.79 509.73 32.79 510.88 31.06C512.03 29.34 513.56 27.88 515.48 26.7C517.39 25.52 519.82 24.61 522.63 23.97C525.32 23.33 528.38 23.06 531.7 23.06C535.92 23.06 539.5 23.43 542.31 24.06C545.12 24.7 547.42 25.7 549.08 27.06C550.74 28.43 551.89 30.06 552.66 32.06C553.3 34.06 553.68 36.43 553.68 39.16L553.68 84.89L541.93 84.89L540.78 79.62C539.12 81.35 536.82 82.8 534 83.89C531.19 84.99 527.87 85.53 524.29 85.53ZM531.19 76.89C532.47 76.89 533.88 76.62 535.15 76.16C536.43 75.71 537.45 75.07 538.35 74.35L538.35 55.25C537.45 55.52 536.56 55.8 535.54 56.07C534.52 56.43 533.37 56.8 532.22 57.34C531.07 57.89 530.04 58.43 528.89 59.16C527.87 59.89 526.85 60.71 525.95 61.71C525.06 62.71 524.42 63.8 523.91 64.98C523.4 66.25 523.14 67.62 523.14 69.07C523.14 71.44 523.78 73.26 525.06 74.71C526.34 76.16 528.38 76.89 531.19 76.89Z" />
</svg>