<svg xmlns="http://www.w3.org/2000/svg" viewBox="0 0 935 494" width="935" height="494">
	<defs>
		<linearGradient id="grd1" gradientUnits="userSpaceOnUse"  x1="-547.514" y1="373.866" x2="2835.864" y2="373.866">
			<stop offset="0" stop-color="#ec4c4c"  />
			<stop offset="1" stop-color="#ec4c4c"  />
		</linearGradient>
	</defs>
	<style>
		tspan { white-space:pre }
		.shp0 { fill: url(#grd1) } 
	</style>
	<g id="Layer">
		<path id="Layer" fill-rule="evenodd" class="shp0" d="M148.54 290.31L148.54 310.22L129.16 310.22L129.16 211.27L144.32 211.27L146.04 219.16C146.97 218.16 147.91 217.16 149.16 216.05C150.41 215.05 151.82 214.04 153.38 213.27C154.94 212.49 156.82 211.82 158.85 211.27C160.88 210.71 163.07 210.49 165.57 210.49C166.66 210.49 167.91 210.6 169.47 210.71C171.03 210.82 172.6 211.15 174.16 211.82C175.72 212.38 177.44 213.27 179 214.38C180.56 215.49 181.97 217.05 183.22 219.05C184.47 221.05 185.56 223.5 186.35 226.5C187.13 229.5 187.6 233.06 187.6 237.28L187.6 259.96C187.6 264.19 187.28 267.86 186.35 270.75C185.56 273.75 184.47 276.19 183.22 278.2C181.97 280.2 180.56 281.75 178.85 282.87C177.28 283.98 175.57 284.87 173.85 285.42C172.13 285.98 170.57 286.42 169 286.53C167.44 286.65 166.03 286.76 164.94 286.76C160.88 286.76 157.44 286.2 154.79 285.09C151.97 284.09 149.79 282.75 147.91 281.2L148.54 290.31ZM148.54 270.86C149 271.64 149.47 272.3 149.94 272.97C150.57 273.64 151.19 274.19 151.97 274.75C152.75 275.3 153.69 275.64 154.63 275.97C155.57 276.31 156.82 276.42 158.07 276.42C159.47 276.42 160.72 276.19 161.97 275.86C163.22 275.53 164.16 274.75 165.1 273.75C166.03 272.75 166.66 271.41 167.13 269.63C167.6 267.86 167.91 265.52 167.91 262.74L167.91 234.06C167.91 231.28 167.6 228.94 167.13 227.28C166.66 225.5 166.03 224.16 165.1 223.16C164.32 222.16 163.22 221.49 162.13 221.05C161.03 220.72 159.63 220.49 158.22 220.49C155.72 220.49 153.85 221.05 152.29 222.05C150.72 223.05 149.63 224.27 148.54 225.72L148.54 270.86ZM215.09 200.59C211.5 200.59 208.69 199.81 206.66 198.26C204.63 196.7 203.53 194.48 203.53 191.59C203.53 189.92 203.84 188.58 204.31 187.47C204.78 186.36 205.56 185.47 206.66 184.8C207.59 184.14 208.84 183.69 210.25 183.36C211.66 183.03 213.38 182.91 215.09 182.91C218.84 182.91 221.81 183.58 223.84 184.92C225.87 186.25 226.81 188.47 226.81 191.59C226.81 194.37 225.87 196.59 223.84 198.15C221.81 199.7 219 200.59 215.09 200.59ZM205.09 211.38L224.47 211.38L224.47 286.09L205.09 286.09L205.09 211.38ZM244.62 211.38L259.62 211.38L261.34 219.38L261.34 219.49C262.9 217.82 264.47 216.38 266.18 215.27C267.9 214.16 269.78 213.27 271.5 212.49C273.37 211.82 275.25 211.27 277.28 211.04C279.31 210.71 281.18 210.6 283.06 210.6C287.12 210.6 290.71 211.27 293.53 212.71C296.34 214.16 298.53 216.27 300.09 219.05C301.65 217.38 303.21 216.05 304.93 214.93C306.65 213.82 308.37 212.93 310.24 212.27C312.12 211.6 313.99 211.15 315.87 210.93C317.74 210.71 319.62 210.49 321.65 210.49C327.74 210.49 332.43 212.04 335.87 215.05C339.15 218.05 340.87 222.72 340.87 228.83L340.87 286.09L321.65 286.09L321.65 229.28C321.65 227.61 321.49 226.27 321.18 225.16C320.87 224.05 320.24 223.16 319.62 222.49C318.84 221.83 318.06 221.27 316.81 221.05C315.71 220.72 314.31 220.6 312.74 220.6C311.03 220.6 309.15 221.05 307.43 221.94C305.71 222.83 303.99 224.16 302.59 225.72C302.59 226.05 302.59 226.39 302.59 226.72C302.59 227.05 302.59 227.39 302.59 227.72L302.59 286.09L283.37 286.09L283.37 229.28C283.37 227.61 283.21 226.27 282.9 225.16C282.59 224.05 281.96 223.16 281.34 222.49C280.56 221.83 279.78 221.27 278.53 221.05C277.43 220.72 276.03 220.6 274.47 220.6C272.75 220.6 271.03 221.05 269.15 221.94C267.43 222.83 265.72 224.05 264.31 225.72L264.31 286.2L244.62 286.2L244.62 211.38ZM385.86 286.87C381.33 286.87 377.27 286.31 373.83 285.09C370.4 283.87 367.43 281.98 365.08 279.53C362.74 276.97 360.87 273.75 359.62 269.75C358.37 265.74 357.74 260.96 357.74 255.4L357.74 241.4C357.74 236.61 358.21 232.61 359.15 229.17C360.08 225.83 361.49 222.94 363.05 220.6C364.62 218.27 366.49 216.49 368.68 215.16C370.71 213.82 372.9 212.82 375.24 212.04C377.43 211.38 379.77 210.93 381.96 210.71C384.15 210.49 386.18 210.38 388.05 210.38C391.49 210.38 394.77 210.71 398.05 211.49C401.33 212.27 404.14 213.49 406.49 215.27C408.99 217.05 410.86 219.49 412.27 222.49C413.67 225.5 414.46 229.28 414.46 233.72C414.46 235.28 414.46 236.84 414.3 238.39C414.14 239.95 413.99 241.51 413.83 242.95C413.67 244.51 413.36 245.95 413.05 247.29C412.74 248.73 412.42 249.96 411.96 251.18L377.11 251.18L377.11 258.74C377.11 261.96 377.27 264.74 377.58 266.97C377.9 269.19 378.52 270.97 379.3 272.3C380.08 273.64 381.33 274.64 382.74 275.19C384.15 275.75 386.02 276.08 388.21 276.08C389.3 276.08 390.55 275.86 391.65 275.53C392.74 275.19 393.68 274.64 394.61 273.86C395.39 273.08 396.18 271.97 396.64 270.64C397.11 269.3 397.43 267.63 397.43 265.74L397.43 263.41L413.52 263.41L413.52 266.3C413.52 273.41 411.18 278.53 406.33 281.75C401.8 285.31 394.93 286.87 385.86 286.87ZM377.11 242.06L396.49 242.06C396.49 241.62 396.64 241.17 396.64 240.51C396.64 239.84 396.8 239.17 396.8 238.39C396.8 237.61 396.8 236.95 396.8 236.28C396.8 235.61 396.8 234.95 396.8 234.5C396.8 229.61 396.02 226.05 394.3 223.83C392.74 221.61 390.24 220.6 387.11 220.6C385.4 220.6 383.99 220.83 382.74 221.49C381.49 222.05 380.4 223.05 379.61 224.27C378.83 225.61 378.21 227.39 377.74 229.5C377.27 231.72 377.11 234.39 377.11 237.61L377.11 242.06ZM430.86 286.09L430.86 211.38L445.7 211.38L447.42 219.38L447.42 219.49C448.99 217.82 450.55 216.38 452.42 215.27C454.14 214.16 456.02 213.27 457.89 212.49C459.77 211.82 461.64 211.27 463.67 211.04C465.7 210.71 467.58 210.6 469.45 210.6C475.55 210.6 480.39 212.15 483.67 215.16C486.95 218.16 488.67 222.83 488.67 228.94L488.67 286.2L469.45 286.2L469.45 229.28C469.45 225.94 468.67 223.72 467.27 222.38C465.86 221.05 463.83 220.49 461.02 220.49C459.14 220.49 457.11 220.94 455.23 221.83C453.36 222.72 451.64 223.94 450.24 225.61L450.24 286.09L430.86 286.09ZM510.86 221.16L502.73 221.16L502.73 211.38L512.57 211.38L516.48 192.03L530.23 192.03L530.23 211.38L546.95 211.38L546.95 221.16L530.23 221.16L530.23 268.75C530.23 270.41 530.39 271.64 530.85 272.64C531.32 273.64 531.95 274.42 532.73 274.97C533.51 275.53 534.45 275.86 535.39 276.08C536.48 276.31 537.42 276.31 538.51 276.31C540.39 276.31 542.1 276.19 543.51 275.86C544.92 275.53 546.32 275.08 547.73 274.53L547.73 282.09C546.64 283.09 545.39 283.87 544.14 284.53C542.89 285.2 541.48 285.64 540.07 285.98C538.67 286.31 537.26 286.65 535.85 286.76C534.45 286.87 533.04 286.98 531.64 286.98C528.98 286.98 526.32 286.76 523.82 286.2C521.32 285.64 519.14 284.76 517.26 283.31C515.39 281.86 513.82 279.86 512.57 277.31C511.48 274.86 510.86 271.52 510.86 267.52L510.86 221.16ZM570.54 200.59C566.95 200.59 564.13 199.81 562.1 198.26C560.07 196.7 558.98 194.48 558.98 191.59C558.98 189.92 559.29 188.58 559.76 187.47C560.23 186.36 561.01 185.47 562.1 184.8C563.04 184.14 564.29 183.69 565.7 183.36C567.1 183.03 568.82 182.91 570.54 182.91C574.29 182.91 577.26 183.58 579.29 184.92C581.32 186.25 582.26 188.47 582.26 191.59C582.26 194.37 581.32 196.59 579.29 198.15C577.26 199.7 574.29 200.59 570.54 200.59ZM560.54 211.38L579.91 211.38L579.91 286.09L560.54 286.09L560.54 211.38ZM599.91 286.09L599.91 211.38L614.76 211.38L616.47 219.38L616.47 219.49C618.04 217.82 619.6 216.38 621.47 215.27C623.19 214.16 625.07 213.27 626.94 212.49C628.82 211.71 630.69 211.15 632.72 210.93C634.75 210.6 636.63 210.49 638.5 210.49C644.6 210.49 649.44 212.04 652.72 215.05C656 218.05 657.72 222.72 657.72 228.83L657.72 286.09L638.5 286.09L638.5 229.28C638.5 225.94 637.72 223.72 636.32 222.38C634.91 221.05 632.72 220.49 630.07 220.49C628.19 220.49 626.16 220.94 624.29 221.83C622.41 222.72 620.69 223.94 619.29 225.61L619.29 286.09L599.91 286.09ZM677.72 187.36L696.94 187.36L696.94 204.93L696 217.71C697.41 216.27 698.97 215.16 700.53 214.16C702.25 213.27 703.81 212.49 705.69 211.93C707.41 211.38 709.28 210.93 711 210.71C712.87 210.49 714.59 210.38 716.31 210.38C722.41 210.38 727.25 211.93 730.53 214.93C733.81 217.94 735.53 222.61 735.53 228.72L735.53 285.98L716.47 285.98L716.47 229.28C716.47 225.94 715.69 223.72 714.28 222.38C712.87 221.05 710.69 220.49 708.03 220.49C706.16 220.49 704.13 220.94 702.25 221.83C700.22 222.72 698.5 224.05 697.09 225.61L697.09 285.98L677.72 285.98L677.72 187.36ZM770.21 286.87C766.93 286.87 764.12 286.42 761.47 285.53C758.97 284.64 756.78 283.31 755.06 281.75C753.34 280.2 752.09 278.31 751.15 276.08C750.22 273.86 749.75 271.52 749.75 268.97C749.75 265.85 750.22 263.19 751.31 260.74C752.4 258.29 753.97 256.18 756 254.29C758.03 252.4 760.53 250.62 763.65 249.07C766.78 247.51 770.21 245.95 774.28 244.62C776.15 243.95 778.34 243.29 780.84 242.51C783.18 241.84 785.37 241.17 787.24 240.73L787.24 230.83C787.24 229.39 787.09 228.05 786.93 226.83C786.78 225.61 786.46 224.5 785.84 223.61C785.21 222.72 784.43 221.94 783.18 221.38C782.09 220.83 780.37 220.6 778.34 220.6C776.93 220.6 775.68 220.83 774.28 221.16C773.03 221.49 771.78 222.16 770.84 223.05C769.9 223.94 769.12 225.05 768.5 226.5C767.87 227.94 767.56 229.72 767.56 231.83L767.56 235.06L752.87 235.06C752.4 233.61 752.09 232.39 751.78 231.17C751.62 229.94 751.47 228.83 751.47 227.61C751.47 224.83 752.09 222.38 753.5 220.27C754.9 218.16 756.78 216.38 759.12 214.93C761.47 213.49 764.43 212.38 767.87 211.6C771.15 210.82 774.9 210.49 778.96 210.49C784.12 210.49 788.49 210.93 791.93 211.71C795.37 212.49 798.18 213.71 800.21 215.38C802.24 217.05 803.65 219.05 804.59 221.49C805.37 223.94 805.84 226.83 805.84 230.17L805.84 286.09L791.46 286.09L790.06 279.64C788.03 281.75 785.21 283.53 781.78 284.87C778.65 286.2 774.75 286.87 770.21 286.87ZM778.81 276.31C780.37 276.31 782.09 275.97 783.65 275.42C785.21 274.86 786.46 274.08 787.56 273.19L787.56 249.84C786.46 250.18 785.37 250.51 784.12 250.85C782.87 251.29 781.46 251.73 780.06 252.4C778.65 253.07 777.4 253.74 776 254.63C774.75 255.51 773.5 256.52 772.4 257.74C771.31 258.96 770.53 260.3 769.9 261.74C769.28 263.3 768.96 264.97 768.96 266.74C768.96 269.63 769.75 271.86 771.31 273.64C772.71 275.42 775.21 276.31 778.81 276.31Z" />
	</g>
</svg>