<?xml version="1.0" encoding="utf-8"?>
<!-- Generator: Adobe Illustrator 24.2.0, SVG Export Plug-In . SVG Version: 6.00 Build 0)  -->
<svg version="1.1" id="Calque_1" xmlns="http://www.w3.org/2000/svg" xmlns:xlink="http://www.w3.org/1999/xlink" x="0px" y="0px"
	 viewBox="0 0 559.7 540.1" style="enable-background:new 0 0 559.7 540.1;" xml:space="preserve">
<style type="text/css">
	.st0{fill:none;}
	.st1{fill:url(#SVGID_1_);}
	.st2{fill:url(#SVGID_2_);}
	.st3{fill:url(#SVGID_3_);}
	.st4{fill:url(#SVGID_4_);}
	.st5{fill:none;stroke:#2390BB;stroke-width:2;}
	.st6{stroke:#2390BB;}
	.st7{fill:#FFFFFF;stroke:#2390BB;stroke-width:2;}
	.st8{fill:none;stroke:#2390BB;}
	.st9{fill:#FF0000;stroke:#2390BB;stroke-width:2;}
	.st10{fill:#FFA500;stroke:#2390BB;stroke-width:2;}
	.st11{opacity:0;}
	.st12{display:none;fill:#2390BB;}
	.st13{display:none;fill:#FFFFFF;}
</style>
<g transform="matrix(3.7196, 0, 0, 3.7196, 394.228851, -9.847237)">
	<rect x="-59.4" y="5.3" class="st0" width="57" height="100"/>
	<desc>Created with Snap</desc>
	<g>
		
			<linearGradient id="SVGID_1_" gradientUnits="userSpaceOnUse" x1="-69.4291" y1="132.1797" x2="-68.4291" y2="132.1797" gradientTransform="matrix(177.7223 0 0 -335.1777 12284.6992 44359.0156)">
			<stop  offset="0" style="stop-color:#EC4C4C"/>
			<stop  offset="1" style="stop-color:#EC4C4C"/>
		</linearGradient>
		<path class="st1" d="M-41.5,39.6c0,0,2.1,3.2,2,7c-0.2,3.7-0.1,6.9-5.6,11c-5.6,4.4-9.3,11.2-9.3,18.9c0,13.2,10.7,23.9,23.9,23.9
			c13.2,0,23.9-10.7,23.9-23.9c0-11.7-9.9-26.4-12.7-30.8c-3.4-5.4-6.3-12.1-5.3-21.4c1-9.2,3.6-14,3.6-14s-8,8.1-10.7,17.1
			c-2.8,9-2.2,15.7-0.1,21.1C-34.6,41.4-41.5,39.6-41.5,39.6z"/>
	</g>
</g>
<g transform="matrix(1.8738, 0, 0, 1.8738, 397.176361, 209.464462)">
	<rect x="-117.9" y="10.5" class="st0" width="110" height="95"/>
	<desc>Created with Snap</desc>
	<g>
		
			<linearGradient id="SVGID_2_" gradientUnits="userSpaceOnUse" x1="-139.3381" y1="145.4074" x2="-138.3381" y2="145.4074" gradientTransform="matrix(187.3806 0 0 -161.0287 25996.373 23473.2227)">
			<stop  offset="0" style="stop-color:#FFFFFF"/>
			<stop  offset="1" style="stop-color:#FFFFFF"/>
		</linearGradient>
		<path class="st2" d="M-85.4,15.5c-16.6,0-27.4,16.5-27.4,30.1c-0.1,25,50,55.8,50,55.8s50.1-30.8,50-55.8
			C-13,32-23.7,15.5-40.3,15.5c-7.6,0-17.2,5-22.6,9.6C-68.2,20.5-77.8,15.5-85.4,15.5L-85.4,15.5z"/>
	</g>
</g>
<g transform="matrix(1.7223, 0, 0, 1.7223, 405.513031, 226.075058)">
	<rect x="-128.3" y="11.4" class="st0" width="110" height="95"/>
	<desc>Created with Snap</desc>
	<g>
		
			<linearGradient id="SVGID_3_" gradientUnits="userSpaceOnUse" x1="-156.5331" y1="148.5654" x2="-155.5331" y2="148.5654" gradientTransform="matrix(172.2306 0 0 -148.0093 26836.5215 22048.4336)">
			<stop  offset="0" style="stop-color:#EC4C4C"/>
			<stop  offset="1" style="stop-color:#EC4C4C"/>
		</linearGradient>
		<path class="st3" d="M-95.8,16.4c-16.6,0-27.4,16.5-27.4,30.1c-0.1,25,50,55.8,50,55.8s50.1-30.8,50-55.8
			c-0.1-13.6-10.8-30.1-27.5-30.1c-7.6,0-17.2,5-22.6,9.6C-78.6,21.4-88.2,16.4-95.8,16.4L-95.8,16.4z"/>
	</g>
</g>
<g transform="matrix(1.2778, 0, 0, 0.9093, 500.842346, 387.506348)">
	<path class="st0" d="M-395.9,127.3c203-1,243-1,446,0"/>
	
		<linearGradient id="SVGID_4_" gradientUnits="userSpaceOnUse" x1="-284.466" y1="103.9804" x2="-283.466" y2="103.9804" gradientTransform="matrix(553.6039 0 0 -104.0694 157091.9531 10901.5566)">
		<stop  offset="0" style="stop-color:#EC4C4C"/>
		<stop  offset="1" style="stop-color:#EC4C4C"/>
	</linearGradient>
	<path class="st4" d="M-377.6,111.4l0.4,8.2v17.9h-12.3v-89h9.7l1.1,7.1c0.6-0.9,1.2-1.8,2-2.8c0.8-0.9,1.7-1.8,2.7-2.5
		c1-0.7,2.2-1.3,3.5-1.8c1.3-0.5,2.7-0.7,4.3-0.7l0,0c0.7,0,1.5,0.1,2.5,0.2c1,0.1,2,0.4,3,1c1,0.5,2.1,1.3,3.1,2.3
		c1,1,1.9,2.4,2.7,4.2c0.8,1.8,1.5,4,2,6.7c0.5,2.7,0.8,5.9,0.8,9.7l0,0v20.4c0,3.8-0.2,7.1-0.8,9.7c-0.5,2.7-1.2,4.9-2,6.7
		c-0.8,1.8-1.7,3.2-2.8,4.2c-1,1-2.1,1.8-3.2,2.3c-1.1,0.5-2.1,0.9-3.1,1c-1,0.1-1.9,0.2-2.6,0.2l0,0c-2.6,0-4.8-0.5-6.5-1.5
		C-375.1,114.1-376.5,112.9-377.6,111.4L-377.6,111.4z M-377.2,61.5v40.6c0.3,0.7,0.6,1.3,1,1.8c0.4,0.6,0.8,1.1,1.3,1.6
		c0.5,0.5,1.1,0.8,1.7,1.1c0.6,0.3,1.4,0.4,2.2,0.4l0,0c0.9,0,1.7-0.2,2.5-0.5c0.8-0.3,1.4-1,2-1.9c0.6-0.9,1-2.1,1.3-3.7
		c0.3-1.6,0.5-3.7,0.5-6.2l0,0V69.1c0-2.5-0.2-4.6-0.5-6.1c-0.3-1.6-0.7-2.8-1.3-3.7c-0.5-0.9-1.2-1.5-1.9-1.9
		c-0.7-0.3-1.6-0.5-2.5-0.5l0,0c-1.6,0-2.8,0.5-3.8,1.4C-375.8,59.2-376.6,60.3-377.2,61.5L-377.2,61.5z M-334.6,39L-334.6,39
		c-2.3,0-4.1-0.7-5.4-2.1c-1.3-1.4-2-3.4-2-6l0,0c0-1.5,0.2-2.7,0.5-3.7s0.8-1.8,1.5-2.4c0.6-0.6,1.4-1,2.3-1.3
		c0.9-0.3,2-0.4,3.1-0.4l0,0c2.4,0,4.3,0.6,5.6,1.8c1.3,1.2,1.9,3.2,1.9,6l0,0c0,2.5-0.6,4.5-1.9,5.9C-330.3,38.3-332.2,39-334.6,39
		z M-341,115.9V48.6h12.4v67.2H-341z M-315.8,115.9V48.6h9.6l1.1,7.2v0.1c1-1.5,2-2.8,3.1-3.8c1.1-1,2.3-1.8,3.4-2.5
		s2.4-1.1,3.7-1.3c1.3-0.3,2.5-0.4,3.7-0.4l0,0c2.6,0,4.9,0.6,6.7,1.9c1.8,1.3,3.2,3.2,4.1,5.7l0,0c1-1.5,2-2.7,3.1-3.7
		c1.1-1,2.2-1.8,3.4-2.4c1.2-0.6,2.4-1,3.6-1.2c1.2-0.2,2.4-0.4,3.7-0.4l0,0c3.9,0,6.9,1.4,9.1,4.1c2.1,2.7,3.2,6.9,3.2,12.4l0,0
		v51.5h-12.4V64.8c0-1.5-0.1-2.7-0.3-3.7c-0.2-1-0.6-1.8-1-2.4c-0.5-0.6-1-1.1-1.8-1.3c-0.7-0.3-1.6-0.4-2.6-0.4l0,0
		c-1.1,0-2.3,0.4-3.4,1.2c-1.1,0.8-2.2,2-3.1,3.4l0,0c0,0.3,0,0.6,0,0.9c0,0.3,0,0.6,0,0.9l0,0v52.5h-12.4V64.8
		c0-1.5-0.1-2.7-0.3-3.7c-0.2-1-0.6-1.8-1-2.4c-0.5-0.6-1-1.1-1.8-1.3c-0.7-0.3-1.6-0.4-2.6-0.4l0,0c-1.1,0-2.2,0.4-3.4,1.2
		c-1.1,0.8-2.2,1.9-3.1,3.4l0,0v54.4H-315.8z M-225.3,116.6L-225.3,116.6c-2.9,0-5.5-0.5-7.7-1.6c-2.2-1.1-4.1-2.8-5.6-5
		c-1.5-2.3-2.7-5.2-3.5-8.8c-0.8-3.6-1.2-7.9-1.2-12.9l0,0V75.6c0-4.3,0.3-7.9,1-11c0.6-3,1.5-5.6,2.5-7.7c1-2.1,2.2-3.7,3.6-4.9
		c1.3-1.2,2.7-2.1,4.2-2.8c1.4-0.6,2.9-1,4.3-1.2c1.4-0.2,2.7-0.3,3.9-0.3l0,0c2.2,0,4.3,0.3,6.4,1c2.1,0.7,3.9,1.8,5.4,3.4
		c1.6,1.6,2.8,3.8,3.7,6.5c0.9,2.7,1.4,6.1,1.4,10.1l0,0c0,1.4,0,2.8-0.1,4.2c-0.1,1.4-0.2,2.8-0.3,4.1c-0.1,1.4-0.3,2.7-0.5,3.9
		c-0.2,1.3-0.4,2.4-0.7,3.5l0,0h-22.3v6.8c0,2.9,0.1,5.4,0.3,7.4c0.2,2,0.6,3.6,1.2,4.8c0.5,1.2,1.3,2.1,2.2,2.6
		c0.9,0.5,2.1,0.8,3.5,0.8l0,0c0.7,0,1.5-0.2,2.2-0.5c0.7-0.3,1.3-0.8,1.9-1.5c0.5-0.7,1-1.7,1.3-2.9c0.3-1.2,0.5-2.7,0.5-4.4l0,0
		v-2.1h10.3v2.6c0,6.4-1.5,11-4.6,13.9C-215.2,115.2-219.6,116.6-225.3,116.6z M-230.9,76.3h12.4c0-0.4,0.1-0.8,0.1-1.4
		c0-0.6,0.1-1.2,0.1-1.9c0-0.7,0-1.3,0-1.9c0-0.6,0-1.2,0-1.6l0,0c0-4.4-0.5-7.6-1.6-9.6c-1-2-2.6-2.9-4.6-2.9l0,0
		c-1.1,0-2,0.2-2.8,0.8c-0.8,0.5-1.5,1.4-2,2.5c-0.5,1.2-0.9,2.8-1.2,4.7c-0.3,2-0.4,4.4-0.4,7.3l0,0V76.3z M-196.5,115.9V48.6h9.5
		l1.1,7.2v0.1c1-1.5,2-2.8,3.1-3.8c1.1-1,2.3-1.8,3.5-2.5c1.2-0.6,2.4-1.1,3.7-1.3c1.3-0.3,2.5-0.4,3.7-0.4l0,0c3.9,0,7,1.4,9.1,4.1
		c2.1,2.7,3.2,6.9,3.2,12.4l0,0v51.5h-12.3V64.8c0-3-0.5-5-1.4-6.2c-0.9-1.2-2.2-1.7-4-1.7l0,0c-1.2,0-2.5,0.4-3.7,1.2
		c-1.2,0.8-2.3,1.9-3.2,3.4l0,0v54.4H-196.5z M-145.3,99.1V57.4h-5.2v-8.8h6.3l2.5-17.4h8.8v17.4h10.7v8.8H-133v42.8
		c0,1.5,0.1,2.6,0.4,3.5c0.3,0.9,0.7,1.6,1.2,2.1c0.5,0.5,1.1,0.8,1.7,1c0.7,0.2,1.3,0.2,2.1,0.2l0,0c1.2,0,2.3-0.1,3.2-0.4
		s1.8-0.7,2.7-1.2l0,0v6.8c-0.7,0.9-1.5,1.6-2.3,2.1c-0.8,0.6-1.7,1-2.6,1.3c-0.9,0.3-1.8,0.6-2.7,0.7c-0.9,0.1-1.8,0.2-2.7,0.2l0,0
		c-1.7,0-3.4-0.2-5-0.7c-1.6-0.5-3-1.3-4.2-2.6c-1.2-1.3-2.2-3.1-3-5.3C-145,105.7-145.3,102.8-145.3,99.1L-145.3,99.1z M-107.2,39
		L-107.2,39c-2.3,0-4.1-0.7-5.4-2.1c-1.3-1.4-2-3.4-2-6l0,0c0-1.5,0.2-2.7,0.5-3.7c0.3-1,0.8-1.8,1.5-2.4c0.6-0.6,1.4-1,2.3-1.3
		c0.9-0.3,2-0.4,3.1-0.4l0,0c2.4,0,4.3,0.6,5.6,1.8c1.3,1.2,1.9,3.2,1.9,6l0,0c0,2.5-0.6,4.5-1.9,5.9S-104.7,39-107.2,39z
		 M-113.6,115.9V48.6h12.4v67.2H-113.6z M-88.3,115.9V48.6h9.5l1.1,7.2v0.1c1-1.5,2-2.8,3.2-3.8c1.1-1,2.3-1.8,3.5-2.5
		c1.2-0.6,2.4-1.1,3.7-1.3c1.3-0.3,2.5-0.4,3.7-0.4l0,0c3.9,0,7,1.4,9.1,4.1c2.1,2.7,3.2,6.9,3.2,12.4l0,0v51.5h-12.3V64.8
		c0-3-0.5-5-1.4-6.2s-2.3-1.7-4-1.7l0,0c-1.2,0-2.5,0.4-3.7,1.2c-1.2,0.8-2.3,1.9-3.2,3.4l0,0v54.4H-88.3z M-38.5,115.9V27.1h12.3
		v15.8l-0.6,11.5c0.9-1.3,1.9-2.3,2.9-3.2c1.1-0.8,2.1-1.5,3.3-2c1.1-0.5,2.3-0.9,3.4-1.1c1.2-0.2,2.3-0.3,3.4-0.3l0,0
		c3.9,0,7,1.4,9.1,4.1c2.1,2.7,3.2,6.9,3.2,12.4l0,0v51.5h-12.4V64.8c0-3-0.5-5-1.4-6.2c-0.9-1.2-2.3-1.7-4-1.7l0,0
		c-1.2,0-2.5,0.4-3.7,1.2c-1.3,0.8-2.4,2-3.3,3.4l0,0v54.3H-38.5z M20.7,116.6L20.7,116.6c-2.1,0-3.9-0.4-5.6-1.2
		c-1.6-0.8-3-2-4.1-3.4c-1.1-1.4-1.9-3.1-2.5-5.1c-0.6-2-0.9-4.1-0.9-6.4l0,0c0-2.8,0.3-5.2,1-7.4c0.7-2.2,1.7-4.1,3-5.8
		c1.3-1.7,2.9-3.3,4.9-4.7c2-1.4,4.2-2.8,6.8-4l0,0c1.2-0.6,2.6-1.2,4.2-1.9c1.5-0.6,2.9-1.2,4.1-1.6l0,0v-8.9
		c0-1.3-0.1-2.5-0.2-3.6c-0.1-1.1-0.3-2.1-0.7-2.9c-0.4-0.8-0.9-1.5-1.7-2c-0.7-0.5-1.8-0.7-3.1-0.7l0,0c-0.9,0-1.7,0.2-2.6,0.5
		c-0.8,0.3-1.6,0.9-2.2,1.7c-0.6,0.8-1.1,1.8-1.5,3.1c-0.4,1.3-0.6,2.9-0.6,4.8l0,0v2.9H9.8c-0.3-1.3-0.5-2.4-0.7-3.5
		c-0.1-1.1-0.2-2.1-0.2-3.2l0,0c0-2.5,0.4-4.7,1.3-6.6c0.9-1.9,2.1-3.5,3.6-4.8c1.5-1.3,3.4-2.3,5.6-3c2.1-0.7,4.5-1,7.1-1l0,0
		c3.3,0,6.1,0.4,8.3,1.1c2.2,0.7,4,1.8,5.3,3.3c1.3,1.5,2.2,3.3,2.8,5.5c0.5,2.2,0.8,4.8,0.8,7.8l0,0v50.3h-9.2l-0.9-5.8
		c-1.3,1.9-3.1,3.5-5.3,4.7C26.1,116,23.5,116.6,20.7,116.6z M26.1,107.1L26.1,107.1c1,0,2.1-0.3,3.1-0.8c1-0.5,1.8-1.2,2.5-2l0,0
		v-21c-0.7,0.3-1.4,0.6-2.2,0.9c-0.8,0.4-1.7,0.8-2.6,1.4l0,0c-0.9,0.6-1.7,1.2-2.6,2c-0.8,0.8-1.6,1.7-2.3,2.8
		c-0.7,1.1-1.2,2.3-1.6,3.6c-0.4,1.4-0.6,2.9-0.6,4.5l0,0c0,2.6,0.5,4.6,1.5,6.2C22.3,106.3,23.9,107.1,26.1,107.1z"/>
	<polygon points="-172.9,21.6 -172.9,21.6 -172.9,21.6 	"/>
</g>
<g transform="matrix(1, 0, 0, 1, 215.842346, 382.506348)">
	<polygon class="st5" points="-220.9,19.7 -220.9,19.7 -220.9,19.7 	"/>
	<g transform="matrix(0.5,0,0,0.5,0,0)">
		<g>
			<path d="M136-26.7c-0.4-0.3-0.7-0.5-1.1-0.7l-1.9,3.2c0.3,0.2,0.6,0.4,0.9,0.6L136-26.7z"/>
			<path d="M141.6-16.6l-3.8-0.2c0.3,2.3-0.2,4.7-1.5,6.8l0,0c-0.4,0.6-0.8,1.1-1.3,1.6C131.1-4.6,125-4.5,121-8c0,0-0.1,0-0.1-0.1
				c-0.1-0.1-0.2-0.2-0.3-0.2c-0.1-0.1-0.1-0.1-0.2-0.2c0,0,0,0-0.1-0.1c-0.1-0.1-0.2-0.2-0.2-0.3v0c-3.2-3.6-3.4-8.8-0.7-12.6
				l4.1,4.1l3.4-14.3l-14.3,3.4l4.1,4.1c-4.2,5.3-3.9,13,0.8,18.1l0,0c0,0,0,0,0,0c0.1,0.1,0.2,0.2,0.3,0.3c0,0,0,0,0.1,0.1
				c0.1,0.1,0.1,0.1,0.2,0.2c0.1,0,0.1,0.1,0.1,0.1c0.1,0,0.1,0.1,0.2,0.1c0.1,0.1,0.3,0.3,0.4,0.4c0,0,0,0,0,0
				c5.6,4.6,13.8,4.1,18.8-1.2C140.6-9,141.9-12.8,141.6-16.6z"/>
			<path d="M136.8-20l3.5-1.3c-0.4-0.9-1-1.8-1.6-2.7l-3.2,2.1C136.1-21.4,136.5-20.7,136.8-20z"/>
		</g>
		<desc>Created with Snap</desc>
		<circle cx="127.2" cy="-16.7" r="15"/>
	</g>
	<rect x="63.6" y="-1.3" class="st6" width="0" height="21"/>
	<rect x="348.1" y="143.7" class="st7" width="0" height="0"/>
	<rect x="-220.9" y="143.7" class="st7" width="0" height="0"/>
	<rect x="348.1" y="19.7" class="st7" width="0" height="0"/>
	<rect x="-220.9" y="19.7" class="st7" width="0" height="0"/>
	<rect x="64.1" y="143.7" class="st7" width="0" height="0"/>
	<rect x="64.1" y="19.7" class="st7" width="0" height="0"/>
	<rect x="-220.9" y="81.7" class="st7" width="0" height="0"/>
	<rect x="348.1" y="81.7" class="st7" width="0" height="0"/>
	<path class="st7" d="M-220.9,19.7"/>
	<line class="st8" x1="-220.9" y1="19.7" x2="-220.9" y2="19.7"/>
	<line class="st8" x1="-220.9" y1="19.7" x2="-220.9" y2="19.7"/>
	<rect x="-220.9" y="19.7" class="st9" width="0" height="0"/>
	<rect x="-220.9" y="19.7" class="st10" width="0" height="0"/>
	<rect x="-220.9" y="19.7" class="st10" width="0" height="0"/>
	<rect x="-220.9" y="19.7" class="st9" width="0" height="0"/>
	<g transform="matrix(1,0,0,1,-50,-15)" class="st11">
		<path class="st12" d="M-215.9,19.7h20c2.8,0,5,2.2,5,5v20c0,2.8-2.2,5-5,5h-20c-2.8,0-5-2.2-5-5v-20
			C-220.9,21.9-218.7,19.7-215.9,19.7z"/>
		<rect x="-214.9" y="25.7" class="st13" width="18" height="4"/>
		<rect x="-214.9" y="32.7" class="st13" width="18" height="4"/>
		<rect x="-214.9" y="39.7" class="st13" width="18" height="4"/>
	</g>
</g>
</svg>
