<?xml version="1.0" encoding="utf-8"?>
<!-- Generator: Adobe Illustrator 24.2.0, SVG Export Plug-In . SVG Version: 6.00 Build 0)  -->
<svg version="1.1" id="Camada_1" xmlns="http://www.w3.org/2000/svg" xmlns:xlink="http://www.w3.org/1999/xlink" x="0px" y="0px"
	 viewBox="0 0 934.2 493.4" style="enable-background:new 0 0 934.2 493.4;" xml:space="preserve">
<style type="text/css">
	.st0{fill:none;}
	.st1{fill:url(#SVGID_1_);}
	.st2{fill:url(#SVGID_2_);}
	.st3{fill:url(#SVGID_3_);}
	.st4{fill:url(#SVGID_4_);}
</style>
<g transform="matrix(4.5481, 0, 0, 4.5481, 101.437141, 16.453817)">
	<rect x="-25.1" y="-7.8" class="st0" width="57" height="100"/>
	<desc>Created with Snap</desc>
	<g>
		
			<linearGradient id="SVGID_1_" gradientUnits="userSpaceOnUse" x1="48.7109" y1="97.2741" x2="49.7109" y2="97.2741" gradientTransform="matrix(217.3079 0 0 -409.8348 -10605.3613 39908.5898)">
			<stop  offset="0" style="stop-color:#EC4C4C"/>
			<stop  offset="1" style="stop-color:#EC4C4C"/>
		</linearGradient>
		<path class="st1" d="M-7.2,26.5c0,0,2.1,3.2,2,7c-0.2,3.7-0.1,6.9-5.6,11c-5.6,4.4-9.3,11.2-9.3,18.9c0,13.2,10.7,23.9,23.9,23.9
			c13.2,0,23.9-10.7,23.9-23.9c0-11.7-9.9-26.4-12.7-30.8c-3.4-5.4-6.3-12.1-5.3-21.4c1-9.2,3.6-14,3.6-14s-8,8.1-10.7,17.1
			c-2.8,9-2.2,15.7-0.1,21.1C-0.3,28.3-7.2,26.5-7.2,26.5z"/>
	</g>
</g>
<g transform="matrix(2.2912, 0, 0, 2.2912, 105.041145, 284.616913)">
	<rect x="-49.8" y="-15.5" class="st0" width="110" height="95"/>
	<desc>Created with Snap</desc>
	<g>
		
			<linearGradient id="SVGID_2_" gradientUnits="userSpaceOnUse" x1="95.1651" y1="76.1315" x2="96.1651" y2="76.1315" gradientTransform="matrix(229.1208 0 0 -196.8988 -21849.1133 15022.7139)">
			<stop  offset="0" style="stop-color:#FFFFFF"/>
			<stop  offset="1" style="stop-color:#FFFFFF"/>
		</linearGradient>
		<path class="st2" d="M-17.4-10.5c-16.6,0-27.4,16.5-27.4,30.1c-0.1,25,50,55.8,50,55.8s50.1-30.8,50-55.8
			C55.1,6.1,44.4-10.5,27.7-10.5c-7.6,0-17.2,5-22.6,9.6C-0.1-5.5-9.7-10.5-17.4-10.5L-17.4-10.5z"/>
	</g>
</g>
<g transform="matrix(2.1059, 0, 0, 2.1059, 115.23484, 304.927399)">
	<rect x="-54.2" y="-16.8" class="st0" width="110" height="95"/>
	<desc>Created with Snap</desc>
	<g>
		
			<linearGradient id="SVGID_3_" gradientUnits="userSpaceOnUse" x1="98.6182" y1="73.2005" x2="99.6182" y2="73.2005" gradientTransform="matrix(210.5907 0 0 -180.9747 -20817.2598 13278.5986)">
			<stop  offset="0" style="stop-color:#EC4C4C"/>
			<stop  offset="1" style="stop-color:#EC4C4C"/>
		</linearGradient>
		<path class="st3" d="M-21.7-11.8c-16.6,0-27.4,16.5-27.4,30.1c-0.1,25,50,55.8,50,55.8s50.1-30.8,50-55.8
			C50.7,4.7,40-11.8,23.4-11.8c-7.6,0-17.2,5-22.6,9.6C-4.5-6.8-14.1-11.8-21.7-11.8L-21.7-11.8z"/>
	</g>
</g>
<g transform="matrix(1.5624, 0, 0, 1.1118, 697.945374, 297.713104)">
	<path class="st0" d="M-296.1,73.8c203-1,243-1,446,0"/>
	
		<linearGradient id="SVGID_4_" gradientUnits="userSpaceOnUse" x1="-239.1155" y1="145.2863" x2="-238.1155" y2="145.2863" gradientTransform="matrix(676.9062 0 0 -127.2455 161569.0781 18513.9375)">
		<stop  offset="0" style="stop-color:#EC4C4C"/>
		<stop  offset="1" style="stop-color:#EC4C4C"/>
	</linearGradient>
	<path class="st4" d="M-277.8,58l0.4,8.2v17.9h-12.4v-89h9.7l1.1,7.1c0.6-0.9,1.2-1.8,2-2.8c0.8-0.9,1.7-1.8,2.7-2.5
		c1-0.7,2.2-1.3,3.5-1.8c1.3-0.5,2.7-0.7,4.3-0.7l0,0c0.7,0,1.5,0.1,2.5,0.2c1,0.1,2,0.4,3,1c1,0.5,2.1,1.3,3.1,2.3
		c1,1,1.9,2.4,2.7,4.2c0.8,1.8,1.5,4,2,6.7c0.5,2.7,0.8,5.9,0.8,9.7l0,0v20.4c0,3.8-0.2,7.1-0.8,9.7c-0.5,2.7-1.2,4.9-2,6.7
		c-0.8,1.8-1.7,3.2-2.8,4.2c-1,1-2.1,1.8-3.2,2.3c-1.1,0.5-2.1,0.9-3.1,1c-1,0.1-1.9,0.2-2.6,0.2l0,0c-2.6,0-4.8-0.5-6.5-1.5
		C-275.2,60.6-276.6,59.4-277.8,58L-277.8,58z M-277.4,8.1v40.6c0.3,0.7,0.6,1.3,0.9,1.9c0.4,0.6,0.8,1.1,1.3,1.6
		c0.5,0.5,1.1,0.8,1.7,1.1c0.6,0.3,1.4,0.4,2.2,0.4l0,0c0.9,0,1.7-0.2,2.5-0.5c0.8-0.3,1.4-1,2-1.9c0.6-0.9,1-2.1,1.3-3.7
		c0.3-1.6,0.5-3.7,0.5-6.2l0,0V15.6c0-2.5-0.2-4.6-0.5-6.1c-0.3-1.6-0.7-2.8-1.3-3.7c-0.5-0.9-1.2-1.5-1.9-1.9
		c-0.7-0.3-1.6-0.5-2.5-0.5l0,0c-1.6,0-2.8,0.5-3.8,1.4S-276.7,6.8-277.4,8.1L-277.4,8.1z M-234.8-14.5L-234.8-14.5
		c-2.3,0-4.1-0.7-5.4-2.1c-1.3-1.4-2-3.4-2-6l0,0c0-1.5,0.2-2.7,0.5-3.7s0.8-1.8,1.5-2.4c0.6-0.6,1.4-1,2.3-1.3
		c0.9-0.3,2-0.4,3.1-0.4l0,0c2.4,0,4.3,0.6,5.6,1.8c1.3,1.2,1.9,3.2,1.9,6l0,0c0,2.5-0.6,4.5-1.9,5.9S-232.3-14.5-234.8-14.5z
		 M-241.2,62.4V-4.8h12.4v67.2H-241.2z M-215.9,62.4V-4.8h9.6l1.1,7.2v0.1c1-1.5,2-2.8,3.1-3.8c1.1-1,2.3-1.8,3.4-2.5
		c1.2-0.6,2.4-1.1,3.7-1.3c1.3-0.3,2.5-0.4,3.7-0.4l0,0c2.6,0,4.9,0.6,6.7,1.9c1.8,1.3,3.2,3.2,4.2,5.7l0,0c1-1.5,2-2.7,3.1-3.7
		c1.1-1,2.2-1.8,3.4-2.4c1.2-0.6,2.4-1,3.6-1.2c1.2-0.2,2.4-0.4,3.7-0.4l0,0c3.9,0,6.9,1.4,9.1,4.1c2.1,2.7,3.2,6.9,3.2,12.4l0,0
		v51.5h-12.3V11.3c0-1.5-0.1-2.7-0.3-3.7c-0.2-1-0.6-1.8-1-2.4c-0.5-0.6-1-1.1-1.8-1.3c-0.7-0.3-1.6-0.4-2.6-0.4l0,0
		c-1.1,0-2.3,0.4-3.4,1.2c-1.1,0.8-2.2,2-3.1,3.4l0,0c0,0.3,0,0.6,0,0.9c0,0.3,0,0.6,0,0.9l0,0v52.5h-12.3V11.3
		c0-1.5-0.1-2.7-0.3-3.7c-0.2-1-0.6-1.8-1-2.4c-0.5-0.6-1-1.1-1.8-1.3c-0.7-0.3-1.6-0.4-2.6-0.4l0,0c-1.1,0-2.2,0.4-3.4,1.2
		c-1.1,0.8-2.2,1.9-3.1,3.4l0,0v54.4H-215.9z M-125.5,63.1L-125.5,63.1c-2.9,0-5.5-0.5-7.7-1.6c-2.2-1.1-4.1-2.8-5.6-5
		c-1.5-2.3-2.7-5.2-3.5-8.8c-0.8-3.6-1.2-7.9-1.2-12.9l0,0V22.2c0-4.3,0.3-7.9,0.9-11c0.6-3,1.5-5.6,2.5-7.7c1-2.1,2.2-3.7,3.6-4.9
		c1.3-1.2,2.7-2.1,4.2-2.8c1.4-0.6,2.9-1,4.3-1.2c1.4-0.2,2.7-0.3,3.9-0.3l0,0c2.2,0,4.3,0.3,6.4,1c2.1,0.7,3.9,1.8,5.4,3.4
		c1.6,1.6,2.8,3.8,3.7,6.5c0.9,2.7,1.4,6.1,1.4,10.1l0,0c0,1.4,0,2.8-0.1,4.2c-0.1,1.4-0.2,2.8-0.3,4.1c-0.1,1.4-0.3,2.7-0.5,3.9
		c-0.2,1.3-0.4,2.4-0.7,3.5l0,0h-22.3v6.8c0,2.9,0.1,5.4,0.3,7.4c0.2,2,0.6,3.6,1.1,4.8c0.5,1.2,1.3,2.1,2.2,2.6
		c0.9,0.5,2.1,0.8,3.5,0.8l0,0c0.7,0,1.5-0.2,2.2-0.5c0.7-0.3,1.3-0.8,1.9-1.5c0.5-0.7,1-1.7,1.3-2.9c0.3-1.2,0.5-2.7,0.5-4.4l0,0
		v-2.1h10.3v2.6c0,6.4-1.5,11-4.6,13.9C-115.3,61.7-119.7,63.1-125.5,63.1z M-131.1,22.8h12.4c0-0.4,0.1-0.8,0.1-1.4
		c0-0.6,0.1-1.2,0.1-1.9c0-0.7,0-1.3,0-1.9s0-1.2,0-1.6l0,0c0-4.4-0.5-7.6-1.6-9.6c-1-2-2.6-2.9-4.6-2.9l0,0c-1.1,0-2,0.2-2.8,0.8
		c-0.8,0.5-1.5,1.4-2,2.5c-0.5,1.2-0.9,2.8-1.2,4.7c-0.3,2-0.4,4.4-0.4,7.3l0,0V22.8z M-96.7,62.4V-4.8h9.5l1.1,7.2v0.1
		c1-1.5,2-2.8,3.2-3.8c1.1-1,2.3-1.8,3.5-2.5c1.2-0.6,2.4-1.1,3.7-1.3c1.3-0.3,2.5-0.4,3.7-0.4l0,0c3.9,0,7,1.4,9.1,4.1
		c2.1,2.7,3.2,6.9,3.2,12.4l0,0v51.5H-72V11.3c0-3-0.5-5-1.4-6.2c-0.9-1.2-2.2-1.7-4-1.7l0,0c-1.2,0-2.5,0.4-3.7,1.2
		c-1.2,0.8-2.3,1.9-3.2,3.4l0,0v54.4H-96.7z M-45.5,45.7V4h-5.2v-8.8h6.3l2.5-17.4h8.8v17.4h10.7V4h-10.7v42.8
		c0,1.5,0.1,2.6,0.4,3.5c0.3,0.9,0.7,1.6,1.2,2.1c0.5,0.5,1.1,0.8,1.7,1c0.7,0.2,1.3,0.2,2,0.2l0,0c1.2,0,2.3-0.1,3.2-0.4
		s1.8-0.7,2.7-1.2l0,0v6.8c-0.7,0.9-1.5,1.6-2.3,2.2c-0.8,0.6-1.7,1-2.6,1.3c-0.9,0.3-1.8,0.6-2.7,0.7c-0.9,0.1-1.8,0.2-2.7,0.2l0,0
		c-1.7,0-3.4-0.2-5-0.7c-1.6-0.5-3-1.3-4.2-2.6c-1.2-1.3-2.2-3.1-3-5.4C-45.1,52.3-45.5,49.3-45.5,45.7L-45.5,45.7z M-7.3-14.5
		L-7.3-14.5c-2.3,0-4.1-0.7-5.4-2.1c-1.3-1.4-2-3.4-2-6l0,0c0-1.5,0.2-2.7,0.5-3.7s0.8-1.8,1.5-2.4c0.6-0.6,1.4-1,2.3-1.3
		c0.9-0.3,2-0.4,3.1-0.4l0,0c2.4,0,4.3,0.6,5.6,1.8c1.3,1.2,1.9,3.2,1.9,6l0,0c0,2.5-0.6,4.5-1.9,5.9S-4.9-14.5-7.3-14.5z
		 M-13.7,62.4V-4.8h12.4v67.2H-13.7z M11.5,62.4V-4.8H21l1.1,7.2v0.1c1-1.5,2-2.8,3.2-3.8c1.1-1,2.3-1.8,3.5-2.5
		C30-4.5,31.2-5,32.5-5.2c1.3-0.3,2.5-0.4,3.7-0.4l0,0c3.9,0,7,1.4,9.1,4.1c2.1,2.7,3.2,6.9,3.2,12.4l0,0v51.5H36.2V11.3
		c0-3-0.5-5-1.4-6.2s-2.3-1.7-4-1.7l0,0c-1.2,0-2.5,0.4-3.7,1.2c-1.2,0.8-2.3,1.9-3.2,3.4l0,0v54.4H11.5z M61.3,62.4v-88.8h12.3
		v15.8L73,0.9c0.9-1.3,1.9-2.3,2.9-3.2c1.1-0.8,2.1-1.5,3.3-2c1.1-0.5,2.3-0.9,3.4-1.1c1.2-0.2,2.3-0.3,3.4-0.3l0,0
		c3.9,0,7,1.4,9.1,4.1c2.1,2.7,3.2,6.9,3.2,12.4l0,0v51.5H86.1V11.3c0-3-0.5-5-1.4-6.2c-0.9-1.2-2.3-1.7-4-1.7l0,0
		c-1.2,0-2.5,0.4-3.7,1.2c-1.3,0.8-2.4,2-3.3,3.4l0,0v54.3H61.3z M120.5,63.1L120.5,63.1c-2.1,0-3.9-0.4-5.6-1.2
		c-1.6-0.8-3-2-4.1-3.4c-1.1-1.4-1.9-3.1-2.5-5.1c-0.6-2-0.9-4.1-0.9-6.4l0,0c0-2.8,0.3-5.2,1-7.4c0.7-2.2,1.7-4.1,3-5.8
		c1.3-1.7,2.9-3.3,4.9-4.7c2-1.4,4.2-2.8,6.8-4l0,0c1.2-0.6,2.6-1.2,4.2-1.9c1.5-0.6,2.9-1.2,4.1-1.6l0,0v-8.9
		c0-1.3-0.1-2.5-0.2-3.6c-0.1-1.1-0.3-2.1-0.7-2.9c-0.4-0.8-0.9-1.5-1.7-2c-0.7-0.5-1.8-0.7-3.1-0.7l0,0c-0.9,0-1.7,0.2-2.6,0.5
		c-0.8,0.3-1.6,0.9-2.2,1.7c-0.6,0.8-1.1,1.8-1.5,3.1c-0.4,1.3-0.6,2.9-0.6,4.8l0,0v2.9h-9.4c-0.3-1.3-0.5-2.4-0.7-3.5
		c-0.1-1.1-0.2-2.1-0.2-3.2l0,0c0-2.5,0.4-4.7,1.3-6.6c0.9-1.9,2.1-3.5,3.6-4.8c1.5-1.3,3.4-2.3,5.6-3c2.1-0.7,4.5-1,7.1-1l0,0
		c3.3,0,6.1,0.4,8.3,1.1c2.2,0.7,4,1.8,5.3,3.3c1.3,1.5,2.2,3.3,2.8,5.5c0.5,2.2,0.8,4.8,0.8,7.8l0,0v50.3h-9.2l-0.9-5.8
		c-1.3,1.9-3.1,3.5-5.3,4.7C125.9,62.5,123.4,63.1,120.5,63.1z M126,53.6L126,53.6c1,0,2.1-0.3,3.1-0.8c1-0.5,1.8-1.2,2.5-2l0,0v-21
		c-0.7,0.3-1.4,0.6-2.2,0.9c-0.8,0.4-1.7,0.8-2.6,1.4l0,0c-0.9,0.6-1.7,1.2-2.6,2c-0.8,0.8-1.6,1.7-2.3,2.8
		c-0.7,1.1-1.2,2.3-1.6,3.6c-0.4,1.4-0.6,2.9-0.6,4.5l0,0c0,2.6,0.5,4.6,1.5,6.2C122.1,52.8,123.7,53.6,126,53.6z"/>
	<polygon points="-73,-31.9 -73,-31.9 -73,-31.9 	"/>
</g>
</svg>
