<?xml version="1.0" encoding="utf-8"?>
<svg viewBox="220.906 -19.654 559.747 540.094" xmlns="http://www.w3.org/2000/svg">
  <defs>
    <linearGradient x1="0" y1="0.5" x2="1" y2="0.5" id="linearGradientSkkaztwtt1i1">
      <stop offset="0" stop-color="#ec4c4c"/>
      <stop offset="1" stop-color="#ec4c4c"/>
    </linearGradient>
    <linearGradient x1="0" y1="0.5" x2="1" y2="0.5" id="linearGradientSkkaztwtt22v">
      <stop offset="0" stop-color="#ffffff"/>
      <stop offset="1" stop-color="#ffffff"/>
    </linearGradient>
    <linearGradient x1="0" y1="0.5" x2="1" y2="0.5" id="linearGradientSkkaztwtt23f">
      <stop offset="0" stop-color="#ec4c4c"/>
      <stop offset="1" stop-color="#ec4c4c"/>
    </linearGradient>
    <linearGradient x1="0" y1="0.5" x2="1" y2="0.5" id="linearGradientSkkaztwtt24l">
      <stop offset="0" stop-color="#ec4c4c"/>
      <stop offset="1" stop-color="#ec4c4c"/>
    </linearGradient>
  </defs>
  <g style="cursor: move; opacity: 1;" class="svg-clip svg-visible" transform="matrix(3.7196, 0, 0, 3.7196, 394.228851, -9.847237)">
    <rect x="0" y="0" width="57" height="100" fill="none" style="" class="svg-hitbox"/>
    <svg width="57.7799397" height="100.11121750000001" viewBox="19.4500333,0.10745620000000145,57.7799397,100.11121750000001">
      <desc>Created with Snap</desc>
      <g/>
      <g/>
      <g/>
      <g/>
      <g/>
      <g/>
      <g/>
      <g>
        <path d="M37.3267479,34.4391212c0,0,2.145565,3.2067375,1.9716187,7.015461  c-0.1682053,3.6554527-0.056263,6.8675728-5.5721931,10.9811592c-5.6426353,4.3707657-9.2761402,11.205513-9.2761402,18.892643  c0,13.1957703,10.6938839,23.8902893,23.8902874,23.8902893c13.1933441,0,23.8896523-10.694519,23.8896523-23.8902893  c0-11.717659-9.8737869-26.3866844-12.6692047-30.824707c-3.375576-5.3603401-6.3149452-12.1265583-5.2762375-21.366581  c1.0375595-9.2338943,3.6304436-14.0296402,3.6304436-14.0296402s-7.9575653,8.1084042-10.725029,17.1354275  c-2.7673378,9.0231953-2.1516914,15.7170506-0.0871658,21.0799427  C44.1954231,36.2230721,37.3267479,34.4391212,37.3267479,34.4391212z" stroke="none" fill="url('#linearGradientSkkaztwtt1i1')" style=""/>
      </g>
    </svg>
  </g>
  <g transform="matrix(1.8738, 0, 0, 1.8738, 397.176361, 209.464462)" style="cursor: move; opacity: 1;" class="svg-clip svg-visible">
    <rect x="0" y="0" width="110" height="95" fill="none" style="" class="svg-hitbox"/>
    <svg width="110.00035190193186" height="95.937" viewBox="-5.000174346278567,-5,110.00035190193186,95.937">
      <desc>Created with Snap</desc>
      <g/>
      <g/>
      <g/>
      <g/>
      <g/>
      <g/>
      <g/>
      <g>
        <path d="M27.443,0C10.815,0,0.059,16.532,0,30.112 c-0.108,24.979,49.996,55.825,49.996,55.825S100.109,55.094,100,30.112C99.939,16.53,89.176,0,72.549,0 c-7.627,0-17.248,4.971-22.553,9.646C44.69,4.971,35.07,0,27.443,0L27.443,0z" stroke="none" fill="url('#linearGradientSkkaztwtt22v')" style=""/>
      </g>
    </svg>
  </g>
  <g transform="matrix(1.7223, 0, 0, 1.7223, 405.513031, 226.075058)" style="cursor: move; opacity: 1;" class="svg-clip svg-visible">
    <rect x="0" y="0" width="110" height="95" fill="none" style="" class="svg-hitbox"/>
    <svg width="110.00035190193186" height="95.937" viewBox="-5.000174346278567,-5,110.00035190193186,95.937">
      <desc>Created with Snap</desc>
      <g/>
      <g/>
      <g/>
      <g/>
      <g/>
      <g/>
      <g/>
      <g>
        <path d="M27.443,0C10.815,0,0.059,16.532,0,30.112 c-0.108,24.979,49.996,55.825,49.996,55.825S100.109,55.094,100,30.112C99.939,16.53,89.176,0,72.549,0 c-7.627,0-17.248,4.971-22.553,9.646C44.69,4.971,35.07,0,27.443,0L27.443,0z" stroke="none" fill="url('#linearGradientSkkaztwtt23f')" style=""/>
      </g>
    </svg>
  </g>
  <g transform="matrix(1.2778, 0, 0, 0.9093, 500.842346, 387.506348)" style="pointer-events: fill; cursor: move; opacity: 1;" class="svg-text svg-visible">
    <path fill="none" style="" d="M-223.0224609375,105.68359375 C-20,104.68359375 20,104.68359375 223.0224609375,105.68359375"/>
    <path d="M-204.7124609375-4.44L-204.3224609375 3.81L-204.3224609375 21.73L-216.6724609375 21.73L-216.6724609375-67.24L-207.0024609375-67.24L-205.8824609375-60.16Q-205.0524609375-61.52 -203.9024609375-62.94Q-202.7624609375-64.36 -201.2224609375-65.45Q-199.6824609375-66.55 -197.7524609375-67.26Q-195.8224609375-67.97 -193.4324609375-67.97L-193.4324609375-67.97Q-192.4024609375-67.97 -190.9624609375-67.77Q-189.5224609375-67.58 -187.9924609375-66.8Q-186.4524609375-66.02 -184.9124609375-64.48Q-183.3724609375-62.94 -182.1824609375-60.25Q-180.9824609375-57.57 -180.2224609375-53.56Q-179.4724609375-49.56 -179.4724609375-43.85L-179.4724609375-43.85L-179.4724609375-23.49Q-179.4724609375-17.77 -180.2224609375-13.77Q-180.9824609375-9.77 -182.2024609375-7.08Q-183.4224609375-4.39 -184.9824609375-2.83Q-186.5524609375-1.27 -188.1624609375-0.49Q-189.7724609375 0.29 -191.2824609375 0.51Q-192.8024609375 0.73 -193.9224609375 0.73L-193.9224609375 0.73Q-197.8224609375 0.73 -200.44246093750002-0.78Q-203.0524609375-2.29 -204.7124609375-4.44L-204.7124609375-4.44ZM-204.3224609375-54.35L-204.3224609375-13.72Q-203.9324609375-12.74 -203.3724609375-11.87Q-202.8124609375-10.99 -202.0524609375-10.3Q-201.2924609375-9.62 -200.3424609375-9.2Q-199.3924609375-8.79 -198.1224609375-8.79L-198.1224609375-8.79Q-196.7524609375-8.79 -195.6324609375-9.3Q-194.5024609375-9.81 -193.6724609375-11.16Q-192.8424609375-12.5 -192.3824609375-14.89Q-191.9224609375-17.29 -191.9224609375-21.04L-191.9224609375-21.04L-191.9224609375-46.78Q-191.9224609375-50.54 -192.3824609375-52.91Q-192.8424609375-55.27 -193.6524609375-56.64Q-194.4624609375-58.01 -195.5824609375-58.5Q-196.7024609375-58.98 -198.0724609375-58.98L-198.0724609375-58.98Q-200.4124609375-58.98 -201.9024609375-57.59Q-203.3924609375-56.2 -204.3224609375-54.35L-204.3224609375-54.35ZM-161.7426171875-76.86L-161.7426171875-76.86Q-165.1626171875-76.86 -167.1426171875-78.91Q-169.1126171875-80.96 -169.1126171875-84.91L-169.1126171875-84.91Q-169.1126171875-87.11 -168.6026171875-88.6Q-168.0926171875-90.09 -167.1426171875-90.99Q-166.1826171875-91.89 -164.8226171875-92.31Q-163.4526171875-92.72 -161.6926171875-92.72L-161.6926171875-92.72Q-158.0326171875-92.72 -156.1326171875-90.87Q-154.2226171875-89.01 -154.2226171875-84.91L-154.2226171875-84.91Q-154.2226171875-81.1 -156.1526171875-78.98Q-158.0826171875-76.86 -161.7426171875-76.86ZM-168.1426171875 0L-168.1426171875-67.24L-155.7826171875-67.24L-155.7826171875 0L-168.1426171875 0ZM-142.8931640625 0L-142.8931640625-67.24L-133.3231640625-67.24L-132.2531640625-60.06L-132.2531640625-60.01Q-130.7831640625-62.3 -129.1231640625-63.84Q-127.4631640625-65.38 -125.6831640625-66.31Q-123.9031640625-67.24 -122.0231640625-67.63Q-120.1431640625-68.02 -118.28316406249999-68.02L-118.28316406249999-68.02Q-114.3331640625-68.02 -111.5931640625-66.11Q-108.8631640625-64.21 -107.4431640625-60.4L-107.4431640625-60.4Q-105.98316406250001-62.6 -104.3431640625-64.06Q-102.7131640625-65.53 -100.95316406250001-66.41Q-99.1931640625-67.29 -97.3831640625-67.65Q-95.5831640625-68.02 -93.72316406249999-68.02L-93.72316406249999-68.02Q-87.8631640625-68.02 -84.6631640625-63.89Q-81.4731640625-59.77 -81.4731640625-51.51L-81.4731640625-51.51L-81.4731640625 0L-93.8231640625 0L-93.8231640625-51.07Q-93.8231640625-53.27 -94.1631640625-54.79Q-94.50316406249999-56.3 -95.1931640625-57.23Q-95.8731640625-58.15 -96.95316406250001-58.57Q-98.0231640625-58.98 -99.53316406249999-58.98L-99.53316406249999-58.98Q-101.2431640625-58.98 -102.95316406250001-57.74Q-104.6631640625-56.49 -106.0831640625-54.3L-106.0831640625-54.3Q-106.03316406249999-53.86 -106.03316406249999-53.42Q-106.03316406249999-52.98 -106.03316406249999-52.54L-106.03316406249999-52.54L-106.03316406249999 0L-118.3831640625 0L-118.3831640625-51.07Q-118.3831640625-53.27 -118.7231640625-54.79Q-119.0631640625-56.3 -119.7531640625-57.23Q-120.4331640625-58.15 -121.5131640625-58.57Q-122.5831640625-58.98 -124.0931640625-58.98L-124.0931640625-58.98Q-125.7531640625-58.98 -127.4631640625-57.76Q-129.1731640625-56.54 -130.5431640625-54.39L-130.5431640625-54.39L-130.5431640625 0L-142.8931640625 0ZM-52.4644140625 0.73L-52.4644140625 0.73Q-56.8144140625 0.73 -60.1544140625-0.88Q-63.504414062500004-2.49 -65.7944140625-5.91Q-68.0944140625-9.33 -69.2644140625-14.67Q-70.4344140625-20.02 -70.4344140625-27.54L-70.4344140625-27.54L-70.4344140625-40.23Q-70.4344140625-46.63 -69.4844140625-51.2Q-68.5344140625-55.76 -66.9944140625-58.86Q-65.4544140625-61.96 -63.4244140625-63.77Q-61.4044140625-65.58 -59.254414062500004-66.53Q-57.1044140625-67.48 -54.9844140625-67.75Q-52.8544140625-68.02 -51.0544140625-68.02L-51.0544140625-68.02Q-47.7344140625-68.02 -44.654414062499995-67.02Q-41.5744140625-66.02 -39.2344140625-63.6Q-36.8944140625-61.18 -35.4944140625-57.13Q-34.1044140625-53.08 -34.1044140625-47.02L-34.1044140625-47.02Q-34.1044140625-44.97 -34.2244140625-42.87Q-34.3544140625-40.77 -34.5444140625-38.75Q-34.7444140625-36.72 -35.0544140625-34.81Q-35.3744140625-32.91 -35.7144140625-31.3L-35.7144140625-31.3L-58.034414062500005-31.3L-58.034414062500005-24.46Q-58.034414062500005-20.07 -57.6944140625-17.07Q-57.3444140625-14.06 -56.544414062499996-12.23Q-55.7344140625-10.4 -54.3444140625-9.59Q-52.9544140625-8.79 -50.8544140625-8.79L-50.8544140625-8.79Q-49.7344140625-8.79 -48.654414062499995-9.25Q-47.5844140625-9.72 -46.7744140625-10.79Q-45.9744140625-11.87 -45.4844140625-13.65Q-44.9944140625-15.43 -44.9944140625-18.07L-44.9944140625-18.07L-44.9944140625-20.17L-34.6944140625-20.17L-34.6944140625-17.58Q-34.6944140625-8.01 -39.2544140625-3.64Q-43.8244140625 0.73 -52.4644140625 0.73ZM-58.034414062500005-39.6L-45.6344140625-39.6Q-45.5844140625-40.14 -45.534414062500005-41.04Q-45.4844140625-41.94 -45.4544140625-42.92Q-45.4344140625-43.9 -45.4344140625-44.85Q-45.4344140625-45.8 -45.4344140625-46.48L-45.4344140625-46.48Q-45.4344140625-53.13 -46.9944140625-56.05Q-48.5644140625-58.98 -51.6344140625-58.98L-51.6344140625-58.98Q-53.2444140625-58.98 -54.4644140625-58.23Q-55.6844140625-57.47 -56.4744140625-55.69Q-57.254414062500004-53.91 -57.644414062500005-50.98Q-58.034414062500005-48.05 -58.034414062500005-43.7L-58.034414062500005-43.7L-58.034414062500005-39.6ZM-23.654882812500013 0L-23.654882812500013-67.24L-14.134882812500011-67.24L-13.014882812500012-60.06L-13.014882812500012-60.01Q-11.54488281250001-62.3 -9.86488281250001-63.84Q-8.174882812500012-65.38 -6.374882812500012-66.31Q-4.564882812500009-67.24 -2.6848828125000104-67.63Q-0.8048828125000114-68.02  1.04511718749999-68.02L 1.04511718749999-68.02Q 6.95511718749999-68.02  10.155117187499986-63.89Q 13.355117187499989-59.77  13.355117187499989-51.51L 13.355117187499989-51.51L 13.355117187499989 0L 1.005117187499991 0L 1.005117187499991-51.07Q 1.005117187499991-55.52 -0.3648828125000101-57.25Q-1.734882812500011-58.98 -4.374882812500012-58.98L-4.374882812500012-58.98Q-6.2248828125000095-58.98 -8.054882812500011-57.76Q-9.88488281250001-56.54 -11.304882812500011-54.39L-11.304882812500011-54.39L-11.304882812500011 0L-23.654882812500013 0ZM 27.559804687499977-16.75L 27.559804687499977-58.45L 22.339804687499978-58.45L 22.339804687499978-67.24L 28.63980468749998-67.24L 31.129804687499977-84.67L 39.919804687499976-84.67L 39.919804687499976-67.24L 50.65980468749998-67.24L 50.65980468749998-58.45L 39.919804687499976-58.45L 39.919804687499976-15.67Q 39.919804687499976-13.48  40.32980468749998-12.13Q 40.749804687499974-10.79  41.47980468749998-10.03Q 42.20980468749998-9.28  43.18980468749998-9.03Q 44.169804687499976-8.79  45.23980468749998-8.79L 45.23980468749998-8.79Q 47.04980468749998-8.79  48.43980468749998-9.23Q 49.82980468749998-9.67  51.09980468749998-10.45L 51.09980468749998-10.45L 51.09980468749998-3.61Q 50.01980468749998-2.29  48.779804687499976-1.46Q 47.529804687499976-0.63  46.21980468749998-0.12Q 44.89980468749998 0.39  43.529804687499976 0.59Q 42.15980468749998 0.78  40.83980468749998 0.78L 40.83980468749998 0.78Q 38.25980468749998 0.78  35.859804687499974 0.1Q 33.46980468749998-0.59  31.61980468749998-2.51Q 29.75980468749998-4.44  28.659804687499978-7.86Q 27.559804687499977-11.28  27.559804687499977-16.75L 27.559804687499977-16.75ZM 65.69878906249998-76.86L 65.69878906249998-76.86Q 62.27878906249998-76.86  60.298789062499985-78.91Q 58.328789062499986-80.96  58.328789062499986-84.91L 58.328789062499986-84.91Q 58.328789062499986-87.11  58.838789062499984-88.6Q 59.34878906249999-90.09  60.298789062499985-90.99Q 61.258789062499986-91.89  62.618789062499985-92.31Q 63.98878906249999-92.72  65.74878906249998-92.72L 65.74878906249998-92.72Q 69.40878906249998-92.72  71.30878906249998-90.87Q 73.21878906249998-89.01  73.21878906249998-84.91L 73.21878906249998-84.91Q 73.21878906249998-81.1  71.28878906249999-78.98Q 69.3587890625-76.86  65.69878906249998-76.86ZM 59.298789062499985 0L 59.298789062499985-67.24L 71.65878906249998-67.24L 71.65878906249998 0L 59.298789062499985 0ZM 84.54824218749998 0L 84.54824218749998-67.24L 94.06824218749999-67.24L 95.18824218749998-60.06L 95.18824218749998-60.01Q 96.65824218749998-62.3  98.33824218749999-63.84Q 100.02824218749998-65.38  101.82824218749998-66.31Q 103.63824218749998-67.24  105.5182421875-67.63Q 107.39824218749999-68.02  109.24824218749998-68.02L 109.24824218749998-68.02Q 115.15824218749998-68.02  118.35824218749998-63.89Q 121.55824218749999-59.77  121.55824218749999-51.51L 121.55824218749999-51.51L 121.55824218749999 0L 109.20824218749999 0L 109.20824218749999-51.07Q 109.20824218749999-55.52  107.83824218749999-57.25Q 106.46824218749998-58.98  103.82824218749998-58.98L 103.82824218749998-58.98Q 101.97824218749999-58.98  100.14824218749999-57.76Q 98.31824218749999-56.54  96.89824218749999-54.39L 96.89824218749999-54.39L 96.89824218749999 0L 84.54824218749998 0ZM 134.35292968749997 0L 134.35292968749997-88.82L 146.70292968749996-88.82L 146.70292968749996-73L 146.07292968749996-61.47Q 147.43292968749998-63.38  149.02292968749998-64.62Q 150.61292968749996-65.87  152.29292968749996-66.63Q 153.98292968749996-67.38  155.71292968749998-67.7Q 157.44292968749997-68.02  159.15292968749998-68.02L 159.15292968749998-68.02Q 165.06292968749997-68.02  168.26292968749996-63.89Q 171.46292968749998-59.77  171.46292968749998-51.51L 171.46292968749998-51.51L 171.46292968749998 0L 159.10292968749997 0L 159.10292968749997-51.07Q 159.10292968749997-55.52  157.74292968749998-57.25Q 156.37292968749998-58.98  153.73292968749996-58.98L 153.73292968749996-58.98Q 151.88292968749997-58.98  150.00292968749997-57.74Q 148.12292968749998-56.49  146.70292968749996-54.3L 146.70292968749996-54.3L 146.70292968749996 0L 134.35292968749997 0ZM 193.5352734375 0.73L 193.5352734375 0.73Q 190.4052734375 0.73  187.9852734375-0.51Q 185.5752734375-1.76  183.9152734375-3.91Q 182.2552734375-6.05  181.3952734375-9.01Q 180.5452734375-11.96  180.5452734375-15.43L 180.5452734375-15.43Q 180.5452734375-19.58  181.5652734375-22.8Q 182.5952734375-26.03  184.5752734375-28.61Q 186.5452734375-31.2  189.4752734375-33.33Q 192.4052734375-35.45  196.2652734375-37.35L 196.2652734375-37.35Q 198.1152734375-38.28  200.4352734375-39.23Q 202.7552734375-40.19  204.5652734375-40.87L 204.5652734375-40.87L 204.5652734375-49.76Q 204.5652734375-51.71  204.4152734375-53.39Q 204.2752734375-55.08  203.7152734375-56.32Q 203.1452734375-57.57  202.0252734375-58.28Q 200.9052734375-58.98  198.9452734375-58.98L 198.9452734375-58.98Q 197.6352734375-58.98  196.3852734375-58.5Q 195.1452734375-58.01  194.1852734375-56.84Q 193.2352734375-55.66  192.6752734375-53.71Q 192.1152734375-51.76  192.1152734375-48.88L 192.1152734375-48.88L 192.1152734375-45.95L 182.6952734375-45.95Q 182.2552734375-47.85  182.0352734375-49.44Q 181.8152734375-51.03  181.8152734375-52.59L 181.8152734375-52.59Q 181.8152734375-56.35  183.1052734375-59.23Q 184.3952734375-62.11  186.7152734375-64.06Q 189.0352734375-66.02  192.2652734375-67.02Q 195.48527343749998-68.02  199.3452734375-68.02L 199.3452734375-68.02Q 204.3652734375-68.02  207.6952734375-66.92Q 211.0152734375-65.82  212.98527343749998-63.62Q 214.9652734375-61.43  215.7752734375-58.11Q 216.57527343750002-54.79  216.57527343750002-50.34L 216.57527343750002-50.34L 216.57527343750002 0L 207.3952734375 0L 206.5152734375-5.76Q 204.5152734375-2.88  201.1752734375-1.07Q 197.82527343750002 0.73  193.5352734375 0.73ZM 198.9952734375-8.79L 198.9952734375-8.79Q 200.5652734375-8.79  202.0552734375-9.59Q 203.5352734375-10.4  204.5652734375-11.57L 204.5652734375-11.57L 204.5652734375-32.62Q 203.5852734375-32.23  202.3652734375-31.69Q 201.1452734375-31.15  199.73527343749998-30.27L 199.73527343749998-30.27Q 198.4152734375-29.44  197.1452734375-28.27Q 195.8752734375-27.1  194.8752734375-25.49Q 193.8752734375-23.88  193.2652734375-21.85Q 192.6552734375-19.82  192.6552734375-17.33L 192.6552734375-17.33Q 192.6552734375-13.48  194.1652734375-11.13Q 195.6752734375-8.79  198.9952734375-8.79Z" data-textpath="pimentinha" data-text-anchor="middle" data-font-size="100" data-letterspacing="0" data-side="left" data-offset="0" data-dx="0" data-dy="94.2626953125" data-href="" data-font="Fjalla One" data-font-src="/Content/clientfonts/fjallaone.woff" data-font-scale="contain" transform="translate(0,94.2626953125)" fill="url('#linearGradientSkkaztwtt24l')" data-xmlspace="preserve"/>
    <rect x="0" y="0" width="0" height="0"/>
  </g>
  <g class="selector-part" transform="matrix(1, 0, 0, 1, 215.842346, 382.506348)">
    <rect x="0" y="0" width="0" height="0" fill="none" stroke="#2390bb" style="stroke-width: 2;"/>
    <g transform="matrix(0.5,0,0,0.5,0,0)">
      <svg version="1.1" id="Calque_1" xmlns="http://www.w3.org/2000/svg" x="554.5" y="-71px" width="28.94px" height="30px" viewBox="0 -15 28.94 30" enable-background="new 0 -15 28.94 30" style="cursor: pointer;">
        <g>
          <path fill="rgba(0,0,0,0)" d="M23.355-9.979c-0.352-0.263-0.712-0.511-1.084-0.739L20.34-7.486c0.317,0.195,0.629,0.414,0.929,0.646 L23.355-9.979z" style=""/>
          <path fill="rgba(0,0,0,0)" d="M28.894,0.081L25.092-0.13c0.292,2.317-0.217,4.718-1.539,6.756l-0.037-0.021 c-0.376,0.583-0.821,1.137-1.335,1.648c-3.808,3.809-9.902,3.942-13.871,0.396C8.282,8.623,8.255,8.602,8.227,8.576 C8.143,8.498,8.059,8.421,7.976,8.339c-0.052-0.051-0.104-0.1-0.153-0.152C7.8,8.163,7.776,8.14,7.753,8.115 c-0.084-0.091-0.167-0.18-0.25-0.271v0.002C4.312,4.293,4.087-0.98,6.821-4.782l4.123,4.124l3.401-14.306L0.037-11.566l4.102,4.098 C-0.064-2.14,0.193,5.554,4.917,10.587l0,0c0.012,0.016,0.023,0.025,0.033,0.037c0.091,0.098,0.181,0.199,0.278,0.293 c0.021,0.023,0.047,0.043,0.07,0.068c0.075,0.074,0.148,0.146,0.225,0.22c0.051,0.045,0.099,0.086,0.15,0.133 c0.053,0.047,0.104,0.094,0.156,0.14c0.144,0.13,0.291,0.257,0.439,0.375c0.01,0.012,0.018,0.016,0.027,0.023 c5.574,4.563,13.804,4.115,18.842-1.194C27.94,7.722,29.185,3.851,28.894,0.081z" style=""/>
          <path fill="rgba(0,0,0,0)" d="M24.122-3.353l3.544-1.319c-0.426-0.932-0.962-1.826-1.611-2.662L22.88-5.276 C23.373-4.675,23.79-4.027,24.122-3.353z" style=""/>
        </g>
        <desc>Created with Snap</desc>
        <circle cx="14.5" cy="0" r="15" style="" fill="rgba(0,0,0,0)"/>
      </svg>
    </g>
    <rect x="284.5" y="-21" width="0" height="21" fill="rgba(255,255,255,0)" stroke="#2390bb" style="stroke-width: 1; cursor: pointer;"/>
    <circle cx="569" cy="124" r="0" fill="#ffffff" stroke="#2390bb" style="stroke-width: 2; cursor: se-resize;"/>
    <circle cx="0" cy="124" r="0" fill="#ffffff" stroke="#2390bb" style="stroke-width: 2; cursor: sw-resize;"/>
    <circle cx="569" cy="0" r="0" fill="#ffffff" stroke="#2390bb" style="stroke-width: 2; cursor: ne-resize;"/>
    <circle cx="0" cy="0" r="0" fill="#ffffff" stroke="#2390bb" style="stroke-width: 2; cursor: nw-resize;"/>
    <circle cx="285" cy="124" r="0" fill="#ffffff" stroke="#2390bb" style="stroke-width: 2; cursor: s-resize;"/>
    <circle cx="285" cy="0" r="0" fill="#ffffff" stroke="#2390bb" style="stroke-width: 2; cursor: n-resize;"/>
    <circle cx="0" cy="62" r="0" fill="#ffffff" stroke="#2390bb" style="stroke-width: 2; cursor: w-resize;"/>
    <circle cx="569" cy="62" r="0" fill="#ffffff" stroke="#2390bb" style="stroke-width: 2; cursor: e-resize;"/>
    <path stroke="#ff0000" fill="none" style="stroke-width: 3;"/>
    <line x1="0" x2="0" y1="0" y2="0" fill="rgba(255,255,255,0)" stroke="#2390bb" style="stroke-width: 1;"/>
    <line x1="0" x2="0" y1="0" y2="0" fill="rgba(255,255,255,0)" stroke="#2390bb" style="stroke-width: 1;"/>
    <circle cx="0" cy="0" r="0" fill="#ff0000" stroke="#2390bb" style="stroke-width: 2; cursor: pointer;"/>
    <circle cx="0" cy="0" r="0" fill="#ffa500" stroke="#2390bb" style="stroke-width: 2; cursor: pointer;"/>
    <circle cx="0" cy="0" r="0" fill="#ffa500" stroke="#2390bb" style="stroke-width: 2; cursor: pointer;"/>
    <circle cx="0" cy="0" r="0" fill="#ff0000" stroke="#2390bb" style="stroke-width: 2; cursor: pointer;"/>
    <g style="cursor: pointer; visibility: hidden; opacity: 0;" transform="matrix(1,0,0,1,-50,-15)">
      <rect x="0" y="0" width="30" height="30" fill="#2390bb" rx="5" ry="5" style=""/>
      <rect x="6" y="6" width="18" height="4" style="" fill="#ffffff"/>
      <rect x="6" y="13" width="18" height="4" fill="#ffffff" style=""/>
      <rect x="6" y="20" width="18" height="4" fill="#ffffff" style=""/>
    </g>
  </g>
</svg>